<svg width="51" height="51" viewBox="0 0 51 51" fill="none" xmlns="http://www.w3.org/2000/svg">
<path d="M25.3698 50.0839C23.2988 50.0839 21.6198 48.4049 21.6198 46.3339V28.7839H4.06983C1.99876 28.7839 0.319824 27.1049 0.319824 25.0339C0.319824 22.9628 1.99876 21.2839 4.06982 21.2839H21.6198V3.83386C21.6198 1.76279 23.2988 0.0838623 25.3698 0.0838623C27.4409 0.0838623 29.1198 1.76279 29.1198 3.83386V21.2839H46.5698C48.6409 21.2839 50.3198 22.9628 50.3198 25.0339C50.3198 27.1049 48.6409 28.7839 46.5698 28.7839H29.1198V46.3339C29.1198 48.4049 27.4409 50.0839 25.3698 50.0839Z" fill="url(#paint0_linear_930_1572)" fill-opacity="0.79"/>
<defs>
<linearGradient id="paint0_linear_930_1572" x1="77.777" y1="26.1061" x2="-1.57074" y2="-210.719" gradientUnits="userSpaceOnUse">
<stop stop-color="white"/>
<stop offset="1" stop-color="white" stop-opacity="0"/>
</linearGradient>
</defs>
</svg>
