<svg width="128" height="128" viewBox="0 0 128 128" fill="none" xmlns="http://www.w3.org/2000/svg">
<g opacity="0.9">
<path d="M64 73V127C62.45 126.43 60.67 125.76 16 109V55L64 73Z" fill="url(#paint0_linear_575_572)"/>
<path d="M126.999 33L111.999 55L68.7295 38.77L81.7595 16L126.999 33Z" fill="url(#paint1_linear_575_572)"/>
<path d="M62.1 34.2C62.1 34.31 60.5 38.2 60.45 38.33L16 55L1 33L46.25 16L51.73 19L62.1 34.2Z" fill="url(#paint2_linear_575_572)"/>
<path d="M112 55V109C67.33 125.76 65.55 126.43 64 127V73L112 55Z" fill="url(#paint3_linear_575_572)"/>
<path d="M61.9997 34.41L60.4297 38.33L15.9997 55L13.6797 51.6C65.9997 32 58.9097 34.24 61.9997 34.41ZM114.32 51.6L112 55L68.7297 38.77L70.7297 35.25L114.32 51.6Z" fill="#90A4B5"/>
<path d="M112 55L64 73L16 55L60.45 38.33L68.73 38.77L112 55Z" fill="url(#paint4_linear_575_572)"/>
<path d="M112 55L64 73L16 55L64 69L112 55Z" fill="#5E788E"/>
<path d="M68 47H60V42.06C60.0122 39.1261 60.8264 36.2513 62.3546 33.7467C63.8827 31.2421 66.0666 29.203 68.67 27.85C70.236 27.0229 71.5544 25.7948 72.4901 24.2912C73.4259 22.7875 73.9455 21.0624 73.9959 19.292C74.0464 17.5217 73.6257 15.7698 72.777 14.2153C71.9283 12.6609 70.682 11.3597 69.1655 10.4449C67.6491 9.53006 65.9169 9.03437 64.146 9.0085C62.3752 8.98264 60.6292 9.42754 59.0867 10.2977C57.5442 11.1679 56.2604 12.4321 55.3667 13.9611C54.473 15.4901 54.0013 17.229 54 19H46C46.001 15.812 46.8486 12.6814 48.4563 9.92847C50.0639 7.1755 52.3739 4.89888 55.1499 3.33143C57.926 1.76398 61.0685 0.961938 64.2562 1.00732C67.4439 1.0527 70.5623 1.94387 73.2927 3.58971C76.023 5.23555 78.2672 7.577 79.7958 10.3746C81.3245 13.1722 82.0826 16.3257 81.9929 19.5124C81.9031 22.6991 80.9686 25.8049 79.2848 28.512C77.6011 31.2191 75.2286 33.4305 72.41 34.92C71.0937 35.5948 69.987 36.6167 69.2097 37.8752C68.4324 39.1337 68.014 40.5809 68 42.06V47Z" fill="url(#paint5_linear_575_572)"/>
<path d="M64 62C66.2091 62 68 60.2091 68 58C68 55.7909 66.2091 54 64 54C61.7909 54 60 55.7909 60 58C60 60.2091 61.7909 62 64 62Z" fill="url(#paint6_linear_575_572)"/>
<path d="M64 73V80.11L50.54 99.85L16 86.9V55L64 73Z" fill="#90A4B5"/>
<path d="M64 73L49 95L1 77L16 55L64 73Z" fill="url(#paint7_linear_575_572)"/>
<path d="M112 55V86.9L77.46 99.85L64 80.11V73L112 55Z" fill="#90A4B5"/>
<path d="M64 73L79 95L127 77L112 55L64 73Z" fill="url(#paint8_linear_575_572)"/>
<path d="M65 76V126.63C63.8 127.07 64.26 127.1 63 126.63V76H65Z" fill="#90A4B5"/>
<path d="M113.24 54.9999C128.92 31.9999 128.24 33.3999 127.97 32.6899C127.7 31.9799 130.38 33.1799 82.6596 15.2799C81.8172 10.952 79.4958 7.05178 76.0933 4.24764C72.6907 1.4435 68.4188 -0.0899658 64.0096 -0.0899658C59.6005 -0.0899658 55.3286 1.4435 51.926 4.24764C48.5234 7.05178 46.202 10.952 45.3596 15.2799L0.639633 31.9999C0.49103 32.0509 0.356525 32.1362 0.247019 32.2488C0.137512 32.3615 0.0560857 32.4983 0.00933787 32.6483C-0.0374099 32.7983 -0.0481636 32.9572 -0.0220515 33.1121C0.00406061 33.267 0.0663038 33.4136 0.159633 33.5399L14.7596 54.9999L0.159633 76.4199C0.057787 76.5468 -0.0115665 76.6966 -0.0424109 76.8564C-0.0732552 77.0161 -0.0646588 77.181 -0.0173672 77.3366C0.0299243 77.4923 0.114483 77.6341 0.228972 77.7497C0.343462 77.8652 0.484425 77.9512 0.639633 77.9999L14.9996 83.3299V109C14.9996 110.06 11.9996 108.6 63.6596 128C63.893 128.08 64.1463 128.08 64.3796 128C116.38 108.45 113 110 113 109V83.3299L127.36 77.9999C127.508 77.949 127.643 77.8637 127.752 77.7511C127.862 77.6384 127.943 77.5016 127.99 77.3516C128.037 77.2016 128.047 77.0427 128.021 76.8878C127.995 76.7329 127.933 76.5863 127.84 76.4599L113.24 54.9999ZM67.9996 47.9999C68.2648 47.9999 68.5192 47.8946 68.7067 47.7071C68.8943 47.5195 68.9996 47.2652 68.9996 46.9999C68.9996 41.7999 68.8996 41.3899 69.2996 40.0799L109.09 54.9999L63.9996 71.91L18.9096 54.9999L59.1196 39.9199C58.9296 41.3899 58.9996 41.8199 58.9996 46.9999C58.9996 47.2652 59.105 47.5195 59.2925 47.7071C59.4801 47.8946 59.7344 47.9999 59.9996 47.9999H67.9996ZM62.0596 32.3299C52.7296 18.65 53.5096 20 53.9996 20C54.2649 20 54.5192 19.8946 54.7067 19.7071C54.8943 19.5195 54.9996 19.2652 54.9996 19C55.004 17.4052 55.4319 15.8402 56.2398 14.4652C57.0476 13.0902 58.2063 11.9546 59.5973 11.1745C60.9883 10.3944 62.5615 9.99795 64.156 10.0257C65.7506 10.0534 67.3091 10.5043 68.6721 11.3322C70.0351 12.1602 71.1536 13.3354 71.9132 14.7377C72.6728 16.1399 73.0461 17.7188 72.995 19.3128C72.9439 20.9067 72.4701 22.4585 71.6223 23.8092C70.7744 25.1599 69.5829 26.261 68.1696 26.9999C65.7427 28.2722 63.6496 30.0982 62.0596 32.3299ZM111.61 53.7599L70.2096 38.2299C70.8882 37.2195 71.8052 36.3918 72.8796 35.8199C76.1684 34.1034 78.8807 31.4588 80.6798 28.2144C82.4788 24.97 83.2855 21.2687 82.9996 17.57L125.42 33.4999L111.61 53.7599ZM52.6796 6.34995C54.4658 4.70885 56.5825 3.469 58.8875 2.71367C61.1926 1.95834 63.6325 1.70503 66.0436 1.97074C68.4546 2.23646 70.7808 3.01506 72.866 4.25423C74.9512 5.49341 76.7471 7.16447 78.1331 9.15516C79.519 11.1459 80.4629 13.4101 80.9013 15.7958C81.3397 18.1814 81.2625 20.6333 80.6749 22.9867C80.0873 25.3401 79.0029 27.5404 77.4945 29.44C75.9861 31.3396 74.0887 32.8944 71.9296 33.9999C70.4461 34.7509 69.1961 35.8932 68.3149 37.3032C67.4336 38.7132 66.9546 40.3374 66.9296 41.9999V45.9999H60.9996V42.0599C61.0109 39.3119 61.7734 36.6192 63.2046 34.2732C64.6358 31.9273 66.6812 30.0173 69.1196 28.7499C78.7196 23.6799 75.9996 9.22995 65.2696 8.04995C63.8067 7.87408 62.3234 7.9939 60.9077 8.40232C59.492 8.81073 58.1727 9.4994 57.0283 10.4275C55.8838 11.3555 54.9375 12.504 54.2454 13.8049C53.5534 15.1057 53.1297 16.5323 52.9996 18H46.9996C47.2803 13.5189 49.3222 9.33086 52.6796 6.34995ZM45.0596 17.57C44.9996 18 44.9996 18.52 44.9996 19C44.9996 19.2652 45.105 19.5195 45.2925 19.7071C45.4801 19.8946 45.7344 20 45.9996 20H51.1896L60.8996 34.2499C60.3477 35.3041 59.9086 36.4136 59.5896 37.5599L16.3896 53.7599L2.57963 33.4999L45.0596 17.57ZM16.3896 56.2399L62.3896 73.4999L48.6096 93.7599L2.57963 76.4999L16.3896 56.2399ZM16.9996 84.0999C50.7896 96.7599 48.7096 95.9999 48.9996 95.9999C49.7696 95.9999 48.6796 97.2699 62.9996 76.2899V125.51L16.9996 108.29V84.0999ZM111 108.29L64.9996 125.53V76.3099C79.2696 97.2099 78.2296 95.9999 78.9996 95.9999C79.2896 95.9999 77.1296 96.7699 111 84.0799V108.29ZM79.3896 93.7599L65.5796 73.4999L111.58 56.2399L125.42 76.4999L79.3896 93.7599Z" fill="#475A6A"/>
<path d="M64 63C64.9889 63 65.9556 62.7068 66.7779 62.1574C67.6001 61.6079 68.241 60.8271 68.6194 59.9134C68.9978 58.9998 69.0968 57.9945 68.9039 57.0246C68.711 56.0546 68.2348 55.1637 67.5355 54.4645C66.8363 53.7652 65.9454 53.289 64.9754 53.0961C64.0055 52.9031 63.0002 53.0022 62.0866 53.3806C61.173 53.759 60.3921 54.3999 59.8427 55.2222C59.2932 56.0444 59 57.0111 59 58C59 59.3261 59.5268 60.5979 60.4645 61.5355C61.4021 62.4732 62.6739 63 64 63ZM64 55C64.5933 55 65.1734 55.176 65.6667 55.5056C66.1601 55.8352 66.5446 56.3038 66.7716 56.852C66.9987 57.4001 67.0581 58.0033 66.9424 58.5853C66.8266 59.1672 66.5409 59.7018 66.1213 60.1213C65.7018 60.5409 65.1672 60.8266 64.5853 60.9424C64.0033 61.0581 63.4001 60.9987 62.852 60.7716C62.3038 60.5446 61.8352 60.1601 61.5056 59.6667C61.1759 59.1734 61 58.5933 61 58C61 57.2044 61.3161 56.4413 61.8787 55.8787C62.4413 55.3161 63.2044 55 64 55Z" fill="#475A6A"/>
</g>
<defs>
<linearGradient id="paint0_linear_575_572" x1="40" y1="127" x2="40" y2="55" gradientUnits="userSpaceOnUse">
<stop stop-color="#9CAEBD"/>
<stop offset="1" stop-color="#CDD6DD"/>
</linearGradient>
<linearGradient id="paint1_linear_575_572" x1="97.8595" y1="55" x2="97.8595" y2="16.03" gradientUnits="userSpaceOnUse">
<stop stop-color="#9CAEBD"/>
<stop offset="1" stop-color="#CDD6DD"/>
</linearGradient>
<linearGradient id="paint2_linear_575_572" x1="31.55" y1="55" x2="31.55" y2="16.03" gradientUnits="userSpaceOnUse">
<stop stop-color="#9CAEBD"/>
<stop offset="1" stop-color="#CDD6DD"/>
</linearGradient>
<linearGradient id="paint3_linear_575_572" x1="88" y1="-4.76837e-07" x2="88" y2="-4.76837e-07" gradientUnits="userSpaceOnUse">
<stop stop-color="#9CAEBD"/>
<stop offset="1" stop-color="#CDD6DD"/>
</linearGradient>
<linearGradient id="paint4_linear_575_572" x1="64" y1="73" x2="64" y2="38.33" gradientUnits="userSpaceOnUse">
<stop stop-color="#6B869D"/>
<stop offset="1" stop-color="#8FA3B5"/>
</linearGradient>
<linearGradient id="paint5_linear_575_572" x1="64" y1="47" x2="64" y2="1.00001" gradientUnits="userSpaceOnUse">
<stop stop-color="#B5C2CE"/>
<stop offset="1" stop-color="#DBE1E7"/>
</linearGradient>
<linearGradient id="paint6_linear_575_572" x1="64" y1="62" x2="64" y2="54" gradientUnits="userSpaceOnUse">
<stop stop-color="#B5C2CE"/>
<stop offset="1" stop-color="#DBE1E7"/>
</linearGradient>
<linearGradient id="paint7_linear_575_572" x1="32.5" y1="95" x2="32.5" y2="7.07805e-07" gradientUnits="userSpaceOnUse">
<stop stop-color="#9CAEBD"/>
<stop offset="1" stop-color="#CDD6DD"/>
</linearGradient>
<linearGradient id="paint8_linear_575_572" x1="95.5" y1="95" x2="95.5" y2="7.07805e-07" gradientUnits="userSpaceOnUse">
<stop stop-color="#9CAEBD"/>
<stop offset="1" stop-color="#CDD6DD"/>
</linearGradient>
</defs>
</svg>
