<svg width="65" height="64" viewBox="0 0 65 64" fill="none" xmlns="http://www.w3.org/2000/svg">
<rect x="0.5" width="64" height="64" rx="32" fill="#FCF5F5"/>
<path d="M21.848 43.8906H43.1518C43.4978 43.8906 43.8379 43.8007 44.1388 43.6299C44.4397 43.4591 44.6911 43.2131 44.8685 42.9161C45.0459 42.619 45.1432 42.281 45.1509 41.9351C45.1586 41.5892 45.0764 41.2472 44.9124 40.9425L34.2612 21.1612C33.5055 19.7587 31.4943 19.7587 30.7387 21.1612L20.0874 40.9425C19.9234 41.2472 19.8412 41.5892 19.8489 41.9351C19.8566 42.281 19.9539 42.619 20.1313 42.9161C20.3087 43.2131 20.5601 43.4591 20.861 43.6299C21.1619 43.8007 21.502 43.8906 21.848 43.8906V43.8906Z" stroke="#E26262" stroke-width="2" stroke-linecap="round" stroke-linejoin="round"/>
<path d="M32.1414 28.2119L32.5001 35.8369L32.8582 28.215C32.8604 28.1663 32.8527 28.1176 32.8355 28.072C32.8182 28.0263 32.7919 27.9847 32.758 27.9496C32.7241 27.9145 32.6835 27.8867 32.6385 27.8678C32.5935 27.849 32.5451 27.8395 32.4964 27.84V27.84C32.4484 27.8405 32.4011 27.8505 32.3571 27.8696C32.3132 27.8887 32.2735 27.9163 32.2404 27.951C32.2073 27.9857 32.1815 28.0266 32.1645 28.0714C32.1475 28.1162 32.1396 28.164 32.1414 28.2119V28.2119Z" stroke="#E26262" stroke-width="2" stroke-linecap="round" stroke-linejoin="round"/>
<path d="M32.5 40.8281C32.2528 40.8281 32.0111 40.7548 31.8055 40.6175C31.6 40.4801 31.4398 40.2849 31.3452 40.0565C31.2505 39.8281 31.2258 39.5767 31.274 39.3343C31.3223 39.0918 31.4413 38.8691 31.6161 38.6942C31.7909 38.5194 32.0137 38.4004 32.2561 38.3521C32.4986 38.3039 32.7499 38.3287 32.9784 38.4233C33.2068 38.5179 33.402 38.6781 33.5393 38.8837C33.6767 39.0892 33.75 39.3309 33.75 39.5781C33.75 39.9096 33.6183 40.2276 33.3839 40.462C33.1495 40.6964 32.8315 40.8281 32.5 40.8281Z" fill="#E26262"/>
</svg>
