<svg width="636" height="388" viewBox="0 0 636 388" fill="none" xmlns="http://www.w3.org/2000/svg">
<path fill-rule="evenodd" clip-rule="evenodd" d="M317.693 0.840007C187.167 0.845216 66.72 71.3093 2.73333 185.067H2.73854C-0.459327 190.744 -0.459326 197.681 2.72812 203.364C66.6548 317.219 187.115 387.764 317.688 387.817V387.812H317.709C448.236 387.765 568.669 317.26 632.616 203.465C635.808 197.788 635.808 190.851 632.616 185.173C568.668 71.3815 448.229 0.893449 317.709 0.826782H317.693V0.840007ZM317.688 38.1733C431.261 38.215 536.168 97.6267 594.715 194.333C536.157 291.031 431.261 350.427 317.701 350.48C204.092 350.438 99.1548 290.985 40.6081 194.227C99.2015 97.56 204.115 38.1733 317.675 38.1733H317.688ZM317.672 81.1573C255.391 81.1573 204.5 132.048 204.5 194.329C204.5 256.605 255.391 307.496 317.672 307.496C379.948 307.496 430.839 256.605 430.839 194.329C430.839 132.048 379.948 81.1573 317.672 81.1573ZM317.672 118.491C359.771 118.491 393.501 152.22 393.501 194.324C393.501 236.423 359.771 270.152 317.672 270.152C275.568 270.152 241.839 236.423 241.839 194.324C241.839 152.22 275.568 118.491 317.672 118.491Z" fill="black"/>
</svg>
