<svg width="23" height="28" viewBox="0 0 23 28" fill="none" xmlns="http://www.w3.org/2000/svg">
<path d="M18.0096 12.6768L4.66746 12.6768C3.19372 12.6768 1.99902 13.8715 1.99902 15.3452L1.99902 23.3505C1.99902 24.8242 3.19372 26.0189 4.66746 26.0189H18.0096C19.4834 26.0189 20.6781 24.8242 20.6781 23.3505L20.6781 15.3452C20.6781 13.8715 19.4834 12.6768 18.0096 12.6768Z" stroke="#47B0FF" stroke-width="3" stroke-linecap="round" stroke-linejoin="round"/>
<path fill-rule="evenodd" clip-rule="evenodd" d="M11.4303 19.1436C11.3175 19.1437 11.2261 19.2353 11.2262 19.3481C11.2263 19.461 11.3178 19.5524 11.4307 19.5523C11.5435 19.5522 11.6349 19.4606 11.6348 19.3478C11.6347 19.2349 11.5432 19.1435 11.4303 19.1436ZM10.0003 19.3492C9.99958 18.5593 10.6394 17.9184 11.4293 17.9177C12.2192 17.917 12.8601 18.5568 12.8607 19.3467C12.8614 20.1366 12.2217 20.7775 11.4318 20.7782C10.6419 20.7789 10.001 20.1391 10.0003 19.3492Z" fill="#47B0FF"/>
<path d="M11.2262 19.3481C11.2261 19.2353 11.3175 19.1437 11.4303 19.1436C11.5432 19.1435 11.6347 19.2349 11.6348 19.3478C11.6349 19.4606 11.5435 19.5522 11.4307 19.5523C11.3178 19.5524 11.2263 19.461 11.2262 19.3481Z" fill="#47B0FF"/>
<path d="M5.99902 12.6772L5.99902 7.34029C5.99902 5.92486 6.5613 4.56741 7.56216 3.56655C8.56301 2.56569 9.92047 2.00342 11.3359 2.00342C12.7513 2.00342 14.1088 2.56569 15.1096 3.56655C16.1105 4.56741 16.6728 5.92486 16.6728 7.34029L16.6728 12.6772" stroke="#47B0FF" stroke-width="3" stroke-linecap="round" stroke-linejoin="round"/>
</svg>
