<svg width="21" height="27" viewBox="0 0 21 27" fill="none" xmlns="http://www.w3.org/2000/svg">
<path fill-rule="evenodd" clip-rule="evenodd" d="M7 22.75H5.25V21H7V22.75ZM21 12.25V24.5C21 25.4625 20.2125 26.25 19.25 26.25H1.75C0.7875 26.25 0 25.4625 0 24.5V12.25C0 11.2875 0.7875 10.5 1.75 10.5H3.5V7C3.5 3.15 6.65 0 10.5 0C14.35 0 17.5 3.15 17.5 7C17.5 8.36683 17.5 10.5 17.5 10.5H19.25C20.2125 10.5 21 11.2875 21 12.25ZM6.65 10.5H17.5C17.5 10.5 17.5 8.36683 17.5 7C16 7.5 14.3675 7 14.3675 7C14.3675 4.865 12.635 3 10.5 3C8.365 3 6.6675 4.865 6.6675 7V10.5H6.65ZM19.25 12.25H3.5V24.5H19.25V12.25ZM7 14H5.25V15.75H7V14ZM7 17.5H5.25V19.25H7V17.5Z" fill="#3C3C3C"/>
</svg>
