<svg width="22" height="28" viewBox="0 0 22 28" fill="none" xmlns="http://www.w3.org/2000/svg">
<path fill-rule="evenodd" clip-rule="evenodd" d="M7.5 23.625H5.75V21.875H7.5V23.625ZM21.5 13.125V25.375C21.5 26.3375 20.7125 27.125 19.75 27.125H2.25C1.2875 27.125 0.5 26.3375 0.5 25.375V13.125C0.5 12.1625 1.2875 11.375 2.25 11.375H4V7.875C4 4.025 7.15 0.875 11 0.875C14.85 0.875 18 4.025 18 7.875V11.375H19.75C20.7125 11.375 21.5 12.1625 21.5 13.125ZM7.15 11.375H14.8675V7.875C14.8675 5.74 13.1525 4.025 11.0175 4.025C8.8825 4.025 7.1675 5.74 7.1675 7.875V11.375H7.15ZM19.75 13.125H4V25.375H19.75V13.125ZM7.5 14.875H5.75V16.625H7.5V14.875ZM7.5 18.375H5.75V20.125H7.5V18.375Z" fill="#3C3C3C"/>
</svg>
