<svg width="44" height="44" viewBox="0 0 44 44" fill="none" xmlns="http://www.w3.org/2000/svg">
<path d="M31.1667 20.1667H12.8334C10.8084 20.1667 9.16675 21.8083 9.16675 23.8334L9.16675 34.8334C9.16675 36.8584 10.8084 38.5 12.8334 38.5H31.1667C33.1918 38.5 34.8334 36.8584 34.8334 34.8334L34.8334 23.8334C34.8334 21.8083 33.1918 20.1667 31.1667 20.1667Z" stroke="#47B0FF" stroke-width="3" stroke-linecap="round" stroke-linejoin="round"/>
<path fill-rule="evenodd" clip-rule="evenodd" d="M21.9997 29.0526C21.8446 29.0528 21.7191 29.1786 21.7192 29.3336C21.7193 29.4887 21.8451 29.6143 22.0002 29.6141C22.1552 29.614 22.2808 29.4882 22.2807 29.3331C22.2806 29.1781 22.1548 29.0525 21.9997 29.0526ZM20.0347 29.3351C20.0337 28.2497 20.9128 27.369 21.9982 27.3681C23.0836 27.3671 23.9643 28.2463 23.9652 29.3317C23.9662 30.417 23.0871 31.2977 22.0017 31.2986C20.9163 31.2996 20.0356 30.4205 20.0347 29.3351Z" fill="#47B0FF"/>
<path d="M21.7192 29.3336C21.7191 29.1786 21.8446 29.0528 21.9997 29.0526C22.1548 29.0525 22.2806 29.1781 22.2807 29.3331C22.2808 29.4882 22.1552 29.614 22.0002 29.6141C21.8451 29.6143 21.7193 29.4887 21.7192 29.3336Z" fill="#47B0FF"/>
<path d="M14.6667 20.1667L14.6667 12.8333C14.6667 10.8884 15.4394 9.02315 16.8146 7.64788C18.1899 6.27262 20.0552 5.5 22.0001 5.5C23.945 5.5 25.8103 6.27262 27.1855 7.64788C28.5608 9.02315 29.3334 10.8884 29.3334 12.8333L29.3334 20.1667" stroke="#47B0FF" stroke-width="3" stroke-linecap="round" stroke-linejoin="round"/>
</svg>
