<svg width="38" height="35" viewBox="0 0 38 35" fill="none" xmlns="http://www.w3.org/2000/svg">
<path d="M19 1.5C22.7893 1.49785 26.4639 2.80003 29.4063 5.18773C32.3487 7.57543 34.3796 10.9031 35.1578 14.6117C35.9359 18.3202 35.4139 22.1836 33.6794 25.5526C31.9449 28.9217 29.1036 31.591 25.633 33.1122L21.6125 22.8418C22.69 22.2605 23.5427 21.3363 24.0356 20.2155C24.5285 19.0948 24.6333 17.8417 24.3335 16.6546C24.0337 15.4676 23.3464 14.4145 22.3805 13.6622C21.4146 12.9099 20.2253 12.5014 19.001 12.5014C17.7766 12.5014 16.5873 12.9099 15.6214 13.6622C14.6555 14.4145 13.9682 15.4676 13.6684 16.6546C13.3686 17.8417 13.4734 19.0948 13.9663 20.2155C14.4592 21.3363 15.3119 22.2605 16.3894 22.8418L12.3689 33.114C8.89732 31.5936 6.055 28.9244 4.31965 25.5552C2.58429 22.1859 2.06171 18.322 2.83972 14.6128C3.61774 10.9036 5.64893 7.5753 8.59188 5.18733C11.5348 2.79937 15.2101 1.49731 19 1.5V1.5Z" stroke="#47B0FF" stroke-width="3" stroke-linecap="round" stroke-linejoin="round"/>
</svg>
