<svg width="224" height="120" viewBox="0 0 224 120" fill="none" xmlns="http://www.w3.org/2000/svg">
<rect x="0.706538" y="1.22376" width="70.2916" height="90.1233" rx="5" transform="matrix(0.966133 0.258045 -0.259595 0.965718 154.498 11.8731)" fill="white"/>
<g clip-path="url(#clip0_51_157)">
<path d="M190.312 68.3777C190.486 68.6817 190.533 69.0421 190.443 69.3804C190.353 69.7188 190.132 70.0079 189.83 70.1847L173.35 79.6918C171.241 80.912 168.733 81.2444 166.379 80.6157C164.024 79.9871 162.016 78.449 160.796 76.3397C159.576 74.2304 159.243 71.7228 159.872 69.3685C160.501 67.0142 162.039 65.006 164.148 63.7858L184.146 52.0425C184.892 51.584 185.723 51.2795 186.589 51.147C187.454 51.0145 188.338 51.0567 189.187 51.2711C190.037 51.4854 190.834 51.8677 191.534 52.3952C192.233 52.9228 192.82 53.585 193.259 54.3428C193.698 55.1006 193.981 55.9387 194.092 56.8076C194.202 57.6766 194.137 58.5588 193.901 59.4024C193.665 60.2459 193.263 61.0336 192.717 61.7191C192.172 62.4047 191.495 62.9741 190.726 63.3939L170.728 75.1371C170.281 75.4004 169.786 75.5719 169.272 75.6416C168.757 75.7113 168.234 75.6778 167.733 75.543C166.979 75.3436 166.301 74.9246 165.785 74.3392C165.27 73.7538 164.939 73.0284 164.837 72.255C164.734 71.4817 164.863 70.6952 165.208 69.9954C165.553 69.2956 166.098 68.7141 166.774 68.3246L183.558 58.4403C183.707 58.3427 183.874 58.2762 184.049 58.2449C184.223 58.2136 184.403 58.2182 184.576 58.2584C184.749 58.2985 184.912 58.3734 185.056 58.4785C185.199 58.5835 185.319 58.7166 185.41 58.8697C185.5 59.0227 185.558 59.1925 185.581 59.3687C185.604 59.545 185.591 59.724 185.542 59.895C185.494 60.0659 185.411 60.2253 185.299 60.3633C185.187 60.5014 185.049 60.6153 184.891 60.6981L168.103 70.5983C167.951 70.684 167.818 70.799 167.711 70.9367C167.604 71.0744 167.526 71.2319 167.481 71.4002C167.389 71.737 167.433 72.0966 167.604 72.401C167.786 72.6987 168.074 72.9155 168.41 73.0069C168.747 73.0988 169.107 73.0545 169.411 72.8835L189.397 61.1202C189.849 60.8638 190.244 60.52 190.561 60.1089C190.878 59.6978 191.109 59.2277 191.242 58.7261C191.445 57.9728 191.42 57.1762 191.17 56.4373C190.92 55.6984 190.455 55.0505 189.836 54.5759C189.217 54.1012 188.471 53.8213 187.692 53.7715C186.913 53.7217 186.138 53.9043 185.463 54.2961L165.477 66.0594C164.707 66.4778 164.029 67.0461 163.483 67.7306C162.936 68.4152 162.532 69.2022 162.295 70.0453C162.057 70.8884 161.991 71.7706 162.1 72.6397C162.209 73.5089 162.49 74.3474 162.928 75.106C163.366 75.8646 163.952 76.5279 164.65 77.0566C165.348 77.5854 166.145 77.9691 166.994 78.1849C167.843 78.4008 168.727 78.4445 169.593 78.3136C170.459 78.1826 171.29 77.8796 172.037 77.4224L188.505 67.8952C188.809 67.7213 189.17 67.6744 189.508 67.7647C189.847 67.8551 190.136 68.0754 190.312 68.3777Z" fill="#404040"/>
</g>
<rect x="0.706538" y="1.22376" width="70.2916" height="90.1233" rx="5" transform="matrix(0.966133 0.258045 -0.259595 0.965718 154.498 11.8731)" stroke="#404040" stroke-width="2"/>
<rect x="1.22573" y="0.707672" width="70.2916" height="90.1233" rx="5" transform="matrix(0.966133 -0.258045 0.259595 0.965718 -0.142196 31.374)" fill="white"/>
<path d="M55.2624 62.0527L37.5497 66.7822C35.5932 67.3047 34.4306 69.3142 34.953 71.2707L37.7908 81.8984C38.3132 83.8549 40.3227 85.0174 42.2792 84.495L59.992 79.7655C61.9485 79.243 63.1111 77.2335 62.5886 75.277L59.7509 64.6493C59.2285 62.6928 57.2189 61.5303 55.2624 62.0527Z" stroke="#404040" stroke-width="2.75" stroke-linecap="round" stroke-linejoin="round"/>
<path fill-rule="evenodd" clip-rule="evenodd" d="M48.6982 73.0027C48.5484 73.0429 48.4595 73.1968 48.4996 73.3466C48.5398 73.4964 48.6937 73.5853 48.8435 73.5451C48.9933 73.505 49.0822 73.351 49.042 73.2013C49.0019 73.0515 48.8479 72.9626 48.6982 73.0027ZM46.8725 73.7826C46.5916 72.7342 47.2138 71.6565 48.2622 71.3756C49.3106 71.0947 50.3882 71.7169 50.6691 72.7653C50.9501 73.8137 50.3279 74.8913 49.2795 75.1722C48.2311 75.4532 47.1534 74.831 46.8725 73.7826Z" fill="#404040"/>
<path d="M48.4996 73.3466C48.4595 73.1968 48.5484 73.0429 48.6982 73.0027C48.8479 72.9626 49.0019 73.0515 49.042 73.2013C49.0822 73.351 48.9933 73.505 48.8435 73.5451C48.6937 73.5853 48.5398 73.4964 48.4996 73.3466Z" fill="#404040"/>
<path d="M39.3209 66.3093L37.4291 59.2241C36.9274 57.3451 37.1926 55.3436 38.1666 53.6601C39.1405 51.9766 40.7433 50.749 42.6224 50.2472C44.5015 49.7455 46.5029 50.0107 48.1864 50.9847C49.8699 51.9586 51.0976 53.5614 51.5993 55.4405L53.4912 62.5256" stroke="#404040" stroke-width="2.75" stroke-linecap="round" stroke-linejoin="round"/>
<rect x="1.22573" y="0.707672" width="70.2916" height="90.1233" rx="5" transform="matrix(0.966133 -0.258045 0.259595 0.965718 -0.142196 31.374)" stroke="#404040" stroke-width="2"/>
<rect x="77.0075" y="1" width="70.3126" height="90.1035" rx="5" fill="white"/>
<path opacity="0.2" d="M125.289 39.4893H116.101V30.3018L125.289 39.4893Z" fill="#404040"/>
<path d="M99.0388 47.3643C99.3869 47.3643 99.7208 47.226 99.9669 46.9799C100.213 46.7337 100.351 46.3999 100.351 46.0518V31.6143H114.789V39.4893C114.789 39.8374 114.927 40.1712 115.173 40.4174C115.419 40.6635 115.753 40.8018 116.101 40.8018H123.976V46.0518C123.976 46.3999 124.115 46.7337 124.361 46.9799C124.607 47.226 124.941 47.3643 125.289 47.3643C125.637 47.3643 125.971 47.226 126.217 46.9799C126.463 46.7337 126.601 46.3999 126.601 46.0518V39.4893C126.604 39.3147 126.57 39.1414 126.502 38.9804C126.435 38.8195 126.334 38.6743 126.208 38.5541L117.036 29.3666C116.786 29.1229 116.451 28.9873 116.101 28.9893H100.351C99.6551 28.9893 98.9874 29.2658 98.4952 29.7581C98.0029 30.2504 97.7263 30.9181 97.7263 31.6143V46.0518C97.7263 46.3999 97.8646 46.7337 98.1107 46.9799C98.3569 47.226 98.6907 47.3643 99.0388 47.3643ZM117.414 33.4682L122.122 38.1768H117.414V33.4682ZM101.664 51.3018H99.0388C98.6907 51.3018 98.3569 51.4401 98.1107 51.6862C97.8646 51.9323 97.7263 52.2662 97.7263 52.6143V60.4893C97.7263 60.8374 97.8646 61.1712 98.1107 61.4174C98.3569 61.6635 98.6907 61.8018 99.0388 61.8018C99.3869 61.8018 99.7208 61.6635 99.9669 61.4174C100.213 61.1712 100.351 60.8374 100.351 60.4893V59.1768H101.664C102.708 59.1768 103.71 58.7619 104.448 58.0235C105.186 57.2851 105.601 56.2836 105.601 55.2393C105.601 54.195 105.186 53.1935 104.448 52.455C103.71 51.7166 102.708 51.3018 101.664 51.3018ZM101.664 56.5518H100.351V53.9268H101.664C102.012 53.9268 102.346 54.0651 102.592 54.3112C102.838 54.5573 102.976 54.8912 102.976 55.2393C102.976 55.5874 102.838 55.9212 102.592 56.1674C102.346 56.4135 102.012 56.5518 101.664 56.5518V56.5518ZM123.32 53.9268V55.8955H125.945C126.293 55.8955 126.627 56.0338 126.873 56.2799C127.119 56.5261 127.258 56.8599 127.258 57.208C127.258 57.5561 127.119 57.89 126.873 58.1361C126.627 58.3822 126.293 58.5205 125.945 58.5205H123.32V60.4893C123.32 60.8374 123.182 61.1712 122.936 61.4174C122.69 61.6635 122.356 61.8018 122.008 61.8018C121.659 61.8018 121.326 61.6635 121.079 61.4174C120.833 61.1712 120.695 60.8374 120.695 60.4893V52.6143C120.695 52.2662 120.833 51.9323 121.079 51.6862C121.326 51.4401 121.659 51.3018 122.008 51.3018H126.601C126.949 51.3018 127.283 51.4401 127.529 51.6862C127.776 51.9323 127.914 52.2662 127.914 52.6143C127.914 52.9624 127.776 53.2962 127.529 53.5424C127.283 53.7885 126.949 53.9268 126.601 53.9268H123.32ZM112.164 51.3018H109.867C109.519 51.3018 109.185 51.4401 108.939 51.6862C108.693 51.9323 108.554 52.2662 108.554 52.6143V60.4893C108.554 60.8374 108.693 61.1712 108.939 61.4174C109.185 61.6635 109.519 61.8018 109.867 61.8018H112.164C113.556 61.8018 114.892 61.2487 115.876 60.2641C116.861 59.2795 117.414 57.9442 117.414 56.5518C117.414 55.1594 116.861 53.824 115.876 52.8395C114.892 51.8549 113.556 51.3018 112.164 51.3018ZM112.164 59.1768H111.179V53.9268H112.164C112.86 53.9268 113.528 54.2033 114.02 54.6956C114.512 55.1879 114.789 55.8556 114.789 56.5518C114.789 57.248 114.512 57.9156 114.02 58.4079C113.528 58.9002 112.86 59.1768 112.164 59.1768V59.1768Z" fill="#404040"/>
<rect x="77.0075" y="1" width="70.3126" height="90.1035" rx="5" stroke="#404040" stroke-width="2"/>
<defs>
<clipPath id="clip0_51_157">
<rect width="42" height="42" fill="white" transform="translate(162.249 40.1166) rotate(14.95)"/>
</clipPath>
</defs>
</svg>
