<svg width="606" height="401" viewBox="0 0 606 401" fill="none" xmlns="http://www.w3.org/2000/svg">
<g filter="url(#filter0_bddii_1340_2851)">
<rect width="144.583" height="184.247" rx="12" transform="matrix(0.966133 0.258045 -0.259595 0.965718 387.313 92.0283)" fill="url(#paint0_linear_1340_2851)" fill-opacity="0.2" shape-rendering="crispEdges"/>
<path d="M459.625 204.755C459.973 205.363 460.066 206.084 459.886 206.76C459.705 207.437 459.264 208.015 458.66 208.369L425.7 227.383C421.481 229.824 416.466 230.488 411.757 229.231C407.049 227.974 403.032 224.897 400.592 220.679C398.151 216.46 397.487 211.445 398.744 206.737C400.001 202.028 403.078 198.012 407.296 195.571L447.292 172.085C448.784 171.168 450.445 170.559 452.177 170.294C453.909 170.029 455.676 170.113 457.375 170.542C459.073 170.97 460.669 171.735 462.067 172.79C463.466 173.845 464.639 175.169 465.517 176.685C466.396 178.201 466.962 179.877 467.183 181.615C467.404 183.353 467.274 185.117 466.802 186.804C466.33 188.491 465.525 190.067 464.434 191.438C463.344 192.809 461.99 193.948 460.452 194.787L420.457 218.274C419.562 218.8 418.572 219.143 417.543 219.283C416.515 219.422 415.469 219.355 414.466 219.086C412.958 218.687 411.602 217.849 410.57 216.678C409.539 215.507 408.878 214.056 408.673 212.51C408.467 210.963 408.726 209.39 409.416 207.99C410.106 206.591 411.196 205.428 412.548 204.649L446.116 184.88C446.413 184.685 446.747 184.552 447.097 184.489C447.447 184.427 447.806 184.436 448.152 184.516C448.498 184.597 448.824 184.746 449.111 184.956C449.398 185.167 449.639 185.433 449.819 185.739C450 186.045 450.117 186.384 450.162 186.737C450.208 187.089 450.181 187.448 450.084 187.789C449.987 188.131 449.822 188.45 449.598 188.726C449.374 189.002 449.097 189.23 448.782 189.396L415.205 209.196C414.902 209.367 414.636 209.598 414.422 209.873C414.209 210.148 414.052 210.463 413.962 210.8C413.778 211.474 413.866 212.193 414.208 212.802C414.571 213.397 415.148 213.831 415.821 214.013C416.494 214.197 417.213 214.109 417.822 213.767L457.795 190.24C458.697 189.727 459.488 189.039 460.122 188.217C460.755 187.395 461.219 186.455 461.485 185.452C461.891 183.945 461.84 182.352 461.34 180.874C460.839 179.396 459.91 178.1 458.672 177.151C457.434 176.202 455.941 175.642 454.384 175.542C452.827 175.443 451.275 175.808 449.926 176.592L409.954 200.118C408.414 200.955 407.058 202.092 405.966 203.461C404.873 204.83 404.065 206.404 403.59 208.09C403.115 209.776 402.982 211.541 403.199 213.279C403.417 215.017 403.98 216.694 404.856 218.212C405.732 219.729 406.903 221.055 408.3 222.113C409.696 223.17 411.29 223.938 412.988 224.369C414.686 224.801 416.453 224.889 418.185 224.627C419.918 224.365 421.58 223.759 423.074 222.844L456.011 203.79C456.619 203.442 457.339 203.348 458.016 203.529C458.693 203.71 459.271 204.15 459.625 204.755V204.755Z" fill="#404040"/>
<path d="M459.625 204.755C459.973 205.363 460.066 206.084 459.886 206.76C459.705 207.437 459.264 208.015 458.66 208.369L425.7 227.383C421.481 229.824 416.466 230.488 411.757 229.231C407.049 227.974 403.032 224.897 400.592 220.679C398.151 216.46 397.487 211.445 398.744 206.737C400.001 202.028 403.078 198.012 407.296 195.571L447.292 172.085C448.784 171.168 450.445 170.559 452.177 170.294C453.909 170.029 455.676 170.113 457.375 170.542C459.073 170.97 460.669 171.735 462.067 172.79C463.466 173.845 464.639 175.169 465.517 176.685C466.396 178.201 466.962 179.877 467.183 181.615C467.404 183.353 467.274 185.117 466.802 186.804C466.33 188.491 465.525 190.067 464.434 191.438C463.344 192.809 461.99 193.948 460.452 194.787L420.457 218.274C419.562 218.8 418.572 219.143 417.543 219.283C416.515 219.422 415.469 219.355 414.466 219.086C412.958 218.687 411.602 217.849 410.57 216.678C409.539 215.507 408.878 214.056 408.673 212.51C408.467 210.963 408.726 209.39 409.416 207.99C410.106 206.591 411.196 205.428 412.548 204.649L446.116 184.88C446.413 184.685 446.747 184.552 447.097 184.489C447.447 184.427 447.806 184.436 448.152 184.516C448.498 184.597 448.824 184.746 449.111 184.956C449.398 185.167 449.639 185.433 449.819 185.739C450 186.045 450.117 186.384 450.162 186.737C450.208 187.089 450.181 187.448 450.084 187.789C449.987 188.131 449.822 188.45 449.598 188.726C449.374 189.002 449.097 189.23 448.782 189.396L415.205 209.196C414.902 209.367 414.636 209.598 414.422 209.873C414.209 210.148 414.052 210.463 413.962 210.8C413.778 211.474 413.866 212.193 414.208 212.802C414.571 213.397 415.148 213.831 415.821 214.013C416.494 214.197 417.213 214.109 417.822 213.767L457.795 190.24C458.697 189.727 459.488 189.039 460.122 188.217C460.755 187.395 461.219 186.455 461.485 185.452C461.891 183.945 461.84 182.352 461.34 180.874C460.839 179.396 459.91 178.1 458.672 177.151C457.434 176.202 455.941 175.642 454.384 175.542C452.827 175.443 451.275 175.808 449.926 176.592L409.954 200.118C408.414 200.955 407.058 202.092 405.966 203.461C404.873 204.83 404.065 206.404 403.59 208.09C403.115 209.776 402.982 211.541 403.199 213.279C403.417 215.017 403.98 216.694 404.856 218.212C405.732 219.729 406.903 221.055 408.3 222.113C409.696 223.17 411.29 223.938 412.988 224.369C414.686 224.801 416.453 224.889 418.185 224.627C419.918 224.365 421.58 223.759 423.074 222.844L456.011 203.79C456.619 203.442 457.339 203.348 458.016 203.529C458.693 203.71 459.271 204.15 459.625 204.755V204.755Z" fill="url(#paint1_radial_1340_2851)"/>
<path d="M459.625 204.755C459.973 205.363 460.066 206.084 459.886 206.76C459.705 207.437 459.264 208.015 458.66 208.369L425.7 227.383C421.481 229.824 416.466 230.488 411.757 229.231C407.049 227.974 403.032 224.897 400.592 220.679C398.151 216.46 397.487 211.445 398.744 206.737C400.001 202.028 403.078 198.012 407.296 195.571L447.292 172.085C448.784 171.168 450.445 170.559 452.177 170.294C453.909 170.029 455.676 170.113 457.375 170.542C459.073 170.97 460.669 171.735 462.067 172.79C463.466 173.845 464.639 175.169 465.517 176.685C466.396 178.201 466.962 179.877 467.183 181.615C467.404 183.353 467.274 185.117 466.802 186.804C466.33 188.491 465.525 190.067 464.434 191.438C463.344 192.809 461.99 193.948 460.452 194.787L420.457 218.274C419.562 218.8 418.572 219.143 417.543 219.283C416.515 219.422 415.469 219.355 414.466 219.086C412.958 218.687 411.602 217.849 410.57 216.678C409.539 215.507 408.878 214.056 408.673 212.51C408.467 210.963 408.726 209.39 409.416 207.99C410.106 206.591 411.196 205.428 412.548 204.649L446.116 184.88C446.413 184.685 446.747 184.552 447.097 184.489C447.447 184.427 447.806 184.436 448.152 184.516C448.498 184.597 448.824 184.746 449.111 184.956C449.398 185.167 449.639 185.433 449.819 185.739C450 186.045 450.117 186.384 450.162 186.737C450.208 187.089 450.181 187.448 450.084 187.789C449.987 188.131 449.822 188.45 449.598 188.726C449.374 189.002 449.097 189.23 448.782 189.396L415.205 209.196C414.902 209.367 414.636 209.598 414.422 209.873C414.209 210.148 414.052 210.463 413.962 210.8C413.778 211.474 413.866 212.193 414.208 212.802C414.571 213.397 415.148 213.831 415.821 214.013C416.494 214.197 417.213 214.109 417.822 213.767L457.795 190.24C458.697 189.727 459.488 189.039 460.122 188.217C460.755 187.395 461.219 186.455 461.485 185.452C461.891 183.945 461.84 182.352 461.34 180.874C460.839 179.396 459.91 178.1 458.672 177.151C457.434 176.202 455.941 175.642 454.384 175.542C452.827 175.443 451.275 175.808 449.926 176.592L409.954 200.118C408.414 200.955 407.058 202.092 405.966 203.461C404.873 204.83 404.065 206.404 403.59 208.09C403.115 209.776 402.982 211.541 403.199 213.279C403.417 215.017 403.98 216.694 404.856 218.212C405.732 219.729 406.903 221.055 408.3 222.113C409.696 223.17 411.29 223.938 412.988 224.369C414.686 224.801 416.453 224.889 418.185 224.627C419.918 224.365 421.58 223.759 423.074 222.844L456.011 203.79C456.619 203.442 457.339 203.348 458.016 203.529C458.693 203.71 459.271 204.15 459.625 204.755V204.755Z" fill="url(#paint2_radial_1340_2851)"/>
<path d="M459.625 204.755C459.973 205.363 460.066 206.084 459.886 206.76C459.705 207.437 459.264 208.015 458.66 208.369L425.7 227.383C421.481 229.824 416.466 230.488 411.757 229.231C407.049 227.974 403.032 224.897 400.592 220.679C398.151 216.46 397.487 211.445 398.744 206.737C400.001 202.028 403.078 198.012 407.296 195.571L447.292 172.085C448.784 171.168 450.445 170.559 452.177 170.294C453.909 170.029 455.676 170.113 457.375 170.542C459.073 170.97 460.669 171.735 462.067 172.79C463.466 173.845 464.639 175.169 465.517 176.685C466.396 178.201 466.962 179.877 467.183 181.615C467.404 183.353 467.274 185.117 466.802 186.804C466.33 188.491 465.525 190.067 464.434 191.438C463.344 192.809 461.99 193.948 460.452 194.787L420.457 218.274C419.562 218.8 418.572 219.143 417.543 219.283C416.515 219.422 415.469 219.355 414.466 219.086C412.958 218.687 411.602 217.849 410.57 216.678C409.539 215.507 408.878 214.056 408.673 212.51C408.467 210.963 408.726 209.39 409.416 207.99C410.106 206.591 411.196 205.428 412.548 204.649L446.116 184.88C446.413 184.685 446.747 184.552 447.097 184.489C447.447 184.427 447.806 184.436 448.152 184.516C448.498 184.597 448.824 184.746 449.111 184.956C449.398 185.167 449.639 185.433 449.819 185.739C450 186.045 450.117 186.384 450.162 186.737C450.208 187.089 450.181 187.448 450.084 187.789C449.987 188.131 449.822 188.45 449.598 188.726C449.374 189.002 449.097 189.23 448.782 189.396L415.205 209.196C414.902 209.367 414.636 209.598 414.422 209.873C414.209 210.148 414.052 210.463 413.962 210.8C413.778 211.474 413.866 212.193 414.208 212.802C414.571 213.397 415.148 213.831 415.821 214.013C416.494 214.197 417.213 214.109 417.822 213.767L457.795 190.24C458.697 189.727 459.488 189.039 460.122 188.217C460.755 187.395 461.219 186.455 461.485 185.452C461.891 183.945 461.84 182.352 461.34 180.874C460.839 179.396 459.91 178.1 458.672 177.151C457.434 176.202 455.941 175.642 454.384 175.542C452.827 175.443 451.275 175.808 449.926 176.592L409.954 200.118C408.414 200.955 407.058 202.092 405.966 203.461C404.873 204.83 404.065 206.404 403.59 208.09C403.115 209.776 402.982 211.541 403.199 213.279C403.417 215.017 403.98 216.694 404.856 218.212C405.732 219.729 406.903 221.055 408.3 222.113C409.696 223.17 411.29 223.938 412.988 224.369C414.686 224.801 416.453 224.889 418.185 224.627C419.918 224.365 421.58 223.759 423.074 222.844L456.011 203.79C456.619 203.442 457.339 203.348 458.016 203.529C458.693 203.71 459.271 204.15 459.625 204.755V204.755Z" fill="url(#paint3_radial_1340_2851)" fill-opacity="0.2"/>
<rect x="1.41308" y="2.44753" width="140.583" height="180.247" rx="10" transform="matrix(0.966133 0.258045 -0.259595 0.965718 387.996 91.7476)" stroke="url(#paint4_linear_1340_2851)" stroke-width="4" shape-rendering="crispEdges"/>
</g>
<g filter="url(#filter1_bddii_1340_2851)">
<rect width="144.583" height="184.247" rx="12" transform="matrix(0.966133 -0.258045 0.259595 0.965718 79.0005 130.067)" fill="url(#paint5_linear_1340_2851)" fill-opacity="0.2" shape-rendering="crispEdges"/>
<g clip-path="url(#clip0_1340_2851)">
<path d="M196.056 178.637L173.563 165.624C172.954 165.282 172.235 165.193 171.561 165.377L141.128 173.504C139.782 173.863 138.635 174.742 137.938 175.947C137.24 177.152 137.05 178.585 137.41 179.93L152.308 235.725C152.667 237.071 153.546 238.218 154.751 238.915C155.956 239.613 157.389 239.803 158.734 239.443L204.385 227.254C205.73 226.895 206.878 226.016 207.575 224.811C208.272 223.605 208.462 222.173 208.103 220.827L197.268 180.249C197.092 179.573 196.656 178.994 196.056 178.637V178.637ZM176.408 173.355L187.936 180.024L178.838 182.453L176.408 173.355ZM203.031 222.182L157.38 234.371L142.482 178.576L170.38 171.127L174.443 186.344C174.622 187.016 175.062 187.59 175.664 187.939C176.267 188.287 176.983 188.382 177.656 188.203L192.873 184.14L203.031 222.182Z" fill="#404040"/>
<path d="M196.056 178.637L173.563 165.624C172.954 165.282 172.235 165.193 171.561 165.377L141.128 173.504C139.782 173.863 138.635 174.742 137.938 175.947C137.24 177.152 137.05 178.585 137.41 179.93L152.308 235.725C152.667 237.071 153.546 238.218 154.751 238.915C155.956 239.613 157.389 239.803 158.734 239.443L204.385 227.254C205.73 226.895 206.878 226.016 207.575 224.811C208.272 223.605 208.462 222.173 208.103 220.827L197.268 180.249C197.092 179.573 196.656 178.994 196.056 178.637V178.637ZM176.408 173.355L187.936 180.024L178.838 182.453L176.408 173.355ZM203.031 222.182L157.38 234.371L142.482 178.576L170.38 171.127L174.443 186.344C174.622 187.016 175.062 187.59 175.664 187.939C176.267 188.287 176.983 188.382 177.656 188.203L192.873 184.14L203.031 222.182Z" fill="url(#paint6_radial_1340_2851)"/>
<path d="M196.056 178.637L173.563 165.624C172.954 165.282 172.235 165.193 171.561 165.377L141.128 173.504C139.782 173.863 138.635 174.742 137.938 175.947C137.24 177.152 137.05 178.585 137.41 179.93L152.308 235.725C152.667 237.071 153.546 238.218 154.751 238.915C155.956 239.613 157.389 239.803 158.734 239.443L204.385 227.254C205.73 226.895 206.878 226.016 207.575 224.811C208.272 223.605 208.462 222.173 208.103 220.827L197.268 180.249C197.092 179.573 196.656 178.994 196.056 178.637V178.637ZM176.408 173.355L187.936 180.024L178.838 182.453L176.408 173.355ZM203.031 222.182L157.38 234.371L142.482 178.576L170.38 171.127L174.443 186.344C174.622 187.016 175.062 187.59 175.664 187.939C176.267 188.287 176.983 188.382 177.656 188.203L192.873 184.14L203.031 222.182Z" fill="url(#paint7_radial_1340_2851)"/>
<path d="M196.056 178.637L173.563 165.624C172.954 165.282 172.235 165.193 171.561 165.377L141.128 173.504C139.782 173.863 138.635 174.742 137.938 175.947C137.24 177.152 137.05 178.585 137.41 179.93L152.308 235.725C152.667 237.071 153.546 238.218 154.751 238.915C155.956 239.613 157.389 239.803 158.734 239.443L204.385 227.254C205.73 226.895 206.878 226.016 207.575 224.811C208.272 223.605 208.462 222.173 208.103 220.827L197.268 180.249C197.092 179.573 196.656 178.994 196.056 178.637V178.637ZM176.408 173.355L187.936 180.024L178.838 182.453L176.408 173.355ZM203.031 222.182L157.38 234.371L142.482 178.576L170.38 171.127L174.443 186.344C174.622 187.016 175.062 187.59 175.664 187.939C176.267 188.287 176.983 188.382 177.656 188.203L192.873 184.14L203.031 222.182Z" fill="url(#paint8_radial_1340_2851)" fill-opacity="0.2"/>
</g>
<rect x="2.45145" y="1.41534" width="140.583" height="180.247" rx="10" transform="matrix(0.966133 -0.258045 0.259595 0.965718 78.7161 130.748)" stroke="url(#paint9_linear_1340_2851)" stroke-width="4" shape-rendering="crispEdges"/>
</g>
<g filter="url(#filter2_bddii_1340_2851)">
<rect x="231.016" y="68.001" width="144.625" height="184.207" rx="12" fill="url(#paint10_linear_1340_2851)" fill-opacity="0.2" shape-rendering="crispEdges"/>
<path d="M277.078 162.731C277.774 162.731 278.442 162.455 278.934 161.962C279.426 161.47 279.703 160.802 279.703 160.106V131.231H308.578V146.981C308.578 147.677 308.855 148.345 309.347 148.837C309.839 149.33 310.507 149.606 311.203 149.606H326.953V160.106C326.953 160.802 327.23 161.47 327.722 161.962C328.214 162.455 328.882 162.731 329.578 162.731C330.274 162.731 330.942 162.455 331.434 161.962C331.926 161.47 332.203 160.802 332.203 160.106V146.981C332.208 146.632 332.141 146.285 332.005 145.964C331.87 145.642 331.669 145.351 331.416 145.111L313.073 126.736C312.573 126.248 311.901 125.977 311.203 125.981H279.703C278.311 125.981 276.975 126.534 275.991 127.519C275.006 128.503 274.453 129.839 274.453 131.231V160.106C274.453 160.802 274.73 161.47 275.222 161.962C275.714 162.455 276.382 162.731 277.078 162.731ZM313.828 134.939L323.245 144.356H313.828V134.939ZM282.328 170.606H277.078C276.382 170.606 275.714 170.883 275.222 171.375C274.73 171.867 274.453 172.535 274.453 173.231V188.981C274.453 189.677 274.73 190.345 275.222 190.837C275.714 191.33 276.382 191.606 277.078 191.606C277.774 191.606 278.442 191.33 278.934 190.837C279.426 190.345 279.703 189.677 279.703 188.981V186.356H282.328C284.417 186.356 286.42 185.527 287.896 184.05C289.373 182.573 290.203 180.57 290.203 178.481C290.203 176.393 289.373 174.39 287.896 172.913C286.42 171.436 284.417 170.606 282.328 170.606ZM282.328 181.106H279.703V175.856H282.328C283.024 175.856 283.692 176.133 284.184 176.625C284.676 177.117 284.953 177.785 284.953 178.481C284.953 179.177 284.676 179.845 284.184 180.337C283.692 180.83 283.024 181.106 282.328 181.106V181.106ZM325.641 175.856V179.794H330.891C331.587 179.794 332.254 180.07 332.747 180.563C333.239 181.055 333.516 181.723 333.516 182.419C333.516 183.115 333.239 183.783 332.747 184.275C332.254 184.767 331.587 185.044 330.891 185.044H325.641V188.981C325.641 189.677 325.364 190.345 324.872 190.837C324.379 191.33 323.712 191.606 323.016 191.606C322.319 191.606 321.652 191.33 321.159 190.837C320.667 190.345 320.391 189.677 320.391 188.981V173.231C320.391 172.535 320.667 171.867 321.159 171.375C321.652 170.883 322.319 170.606 323.016 170.606H332.203C332.899 170.606 333.567 170.883 334.059 171.375C334.551 171.867 334.828 172.535 334.828 173.231C334.828 173.927 334.551 174.595 334.059 175.087C333.567 175.58 332.899 175.856 332.203 175.856H325.641ZM303.328 170.606H298.734C298.038 170.606 297.37 170.883 296.878 171.375C296.386 171.867 296.109 172.535 296.109 173.231V188.981C296.109 189.677 296.386 190.345 296.878 190.837C297.37 191.33 298.038 191.606 298.734 191.606H303.328C306.113 191.606 308.783 190.5 310.753 188.531C312.722 186.562 313.828 183.891 313.828 181.106C313.828 178.321 312.722 175.651 310.753 173.682C308.783 171.712 306.113 170.606 303.328 170.606ZM303.328 186.356H301.359V175.856H303.328C304.72 175.856 306.056 176.409 307.04 177.394C308.025 178.378 308.578 179.714 308.578 181.106C308.578 182.499 308.025 183.834 307.04 184.819C306.056 185.803 304.72 186.356 303.328 186.356V186.356Z" fill="#404040"/>
<path d="M277.078 162.731C277.774 162.731 278.442 162.455 278.934 161.962C279.426 161.47 279.703 160.802 279.703 160.106V131.231H308.578V146.981C308.578 147.677 308.855 148.345 309.347 148.837C309.839 149.33 310.507 149.606 311.203 149.606H326.953V160.106C326.953 160.802 327.23 161.47 327.722 161.962C328.214 162.455 328.882 162.731 329.578 162.731C330.274 162.731 330.942 162.455 331.434 161.962C331.926 161.47 332.203 160.802 332.203 160.106V146.981C332.208 146.632 332.141 146.285 332.005 145.964C331.87 145.642 331.669 145.351 331.416 145.111L313.073 126.736C312.573 126.248 311.901 125.977 311.203 125.981H279.703C278.311 125.981 276.975 126.534 275.991 127.519C275.006 128.503 274.453 129.839 274.453 131.231V160.106C274.453 160.802 274.73 161.47 275.222 161.962C275.714 162.455 276.382 162.731 277.078 162.731ZM313.828 134.939L323.245 144.356H313.828V134.939ZM282.328 170.606H277.078C276.382 170.606 275.714 170.883 275.222 171.375C274.73 171.867 274.453 172.535 274.453 173.231V188.981C274.453 189.677 274.73 190.345 275.222 190.837C275.714 191.33 276.382 191.606 277.078 191.606C277.774 191.606 278.442 191.33 278.934 190.837C279.426 190.345 279.703 189.677 279.703 188.981V186.356H282.328C284.417 186.356 286.42 185.527 287.896 184.05C289.373 182.573 290.203 180.57 290.203 178.481C290.203 176.393 289.373 174.39 287.896 172.913C286.42 171.436 284.417 170.606 282.328 170.606ZM282.328 181.106H279.703V175.856H282.328C283.024 175.856 283.692 176.133 284.184 176.625C284.676 177.117 284.953 177.785 284.953 178.481C284.953 179.177 284.676 179.845 284.184 180.337C283.692 180.83 283.024 181.106 282.328 181.106V181.106ZM325.641 175.856V179.794H330.891C331.587 179.794 332.254 180.07 332.747 180.563C333.239 181.055 333.516 181.723 333.516 182.419C333.516 183.115 333.239 183.783 332.747 184.275C332.254 184.767 331.587 185.044 330.891 185.044H325.641V188.981C325.641 189.677 325.364 190.345 324.872 190.837C324.379 191.33 323.712 191.606 323.016 191.606C322.319 191.606 321.652 191.33 321.159 190.837C320.667 190.345 320.391 189.677 320.391 188.981V173.231C320.391 172.535 320.667 171.867 321.159 171.375C321.652 170.883 322.319 170.606 323.016 170.606H332.203C332.899 170.606 333.567 170.883 334.059 171.375C334.551 171.867 334.828 172.535 334.828 173.231C334.828 173.927 334.551 174.595 334.059 175.087C333.567 175.58 332.899 175.856 332.203 175.856H325.641ZM303.328 170.606H298.734C298.038 170.606 297.37 170.883 296.878 171.375C296.386 171.867 296.109 172.535 296.109 173.231V188.981C296.109 189.677 296.386 190.345 296.878 190.837C297.37 191.33 298.038 191.606 298.734 191.606H303.328C306.113 191.606 308.783 190.5 310.753 188.531C312.722 186.562 313.828 183.891 313.828 181.106C313.828 178.321 312.722 175.651 310.753 173.682C308.783 171.712 306.113 170.606 303.328 170.606ZM303.328 186.356H301.359V175.856H303.328C304.72 175.856 306.056 176.409 307.04 177.394C308.025 178.378 308.578 179.714 308.578 181.106C308.578 182.499 308.025 183.834 307.04 184.819C306.056 185.803 304.72 186.356 303.328 186.356V186.356Z" fill="url(#paint11_radial_1340_2851)"/>
<path d="M277.078 162.731C277.774 162.731 278.442 162.455 278.934 161.962C279.426 161.47 279.703 160.802 279.703 160.106V131.231H308.578V146.981C308.578 147.677 308.855 148.345 309.347 148.837C309.839 149.33 310.507 149.606 311.203 149.606H326.953V160.106C326.953 160.802 327.23 161.47 327.722 161.962C328.214 162.455 328.882 162.731 329.578 162.731C330.274 162.731 330.942 162.455 331.434 161.962C331.926 161.47 332.203 160.802 332.203 160.106V146.981C332.208 146.632 332.141 146.285 332.005 145.964C331.87 145.642 331.669 145.351 331.416 145.111L313.073 126.736C312.573 126.248 311.901 125.977 311.203 125.981H279.703C278.311 125.981 276.975 126.534 275.991 127.519C275.006 128.503 274.453 129.839 274.453 131.231V160.106C274.453 160.802 274.73 161.47 275.222 161.962C275.714 162.455 276.382 162.731 277.078 162.731ZM313.828 134.939L323.245 144.356H313.828V134.939ZM282.328 170.606H277.078C276.382 170.606 275.714 170.883 275.222 171.375C274.73 171.867 274.453 172.535 274.453 173.231V188.981C274.453 189.677 274.73 190.345 275.222 190.837C275.714 191.33 276.382 191.606 277.078 191.606C277.774 191.606 278.442 191.33 278.934 190.837C279.426 190.345 279.703 189.677 279.703 188.981V186.356H282.328C284.417 186.356 286.42 185.527 287.896 184.05C289.373 182.573 290.203 180.57 290.203 178.481C290.203 176.393 289.373 174.39 287.896 172.913C286.42 171.436 284.417 170.606 282.328 170.606ZM282.328 181.106H279.703V175.856H282.328C283.024 175.856 283.692 176.133 284.184 176.625C284.676 177.117 284.953 177.785 284.953 178.481C284.953 179.177 284.676 179.845 284.184 180.337C283.692 180.83 283.024 181.106 282.328 181.106V181.106ZM325.641 175.856V179.794H330.891C331.587 179.794 332.254 180.07 332.747 180.563C333.239 181.055 333.516 181.723 333.516 182.419C333.516 183.115 333.239 183.783 332.747 184.275C332.254 184.767 331.587 185.044 330.891 185.044H325.641V188.981C325.641 189.677 325.364 190.345 324.872 190.837C324.379 191.33 323.712 191.606 323.016 191.606C322.319 191.606 321.652 191.33 321.159 190.837C320.667 190.345 320.391 189.677 320.391 188.981V173.231C320.391 172.535 320.667 171.867 321.159 171.375C321.652 170.883 322.319 170.606 323.016 170.606H332.203C332.899 170.606 333.567 170.883 334.059 171.375C334.551 171.867 334.828 172.535 334.828 173.231C334.828 173.927 334.551 174.595 334.059 175.087C333.567 175.58 332.899 175.856 332.203 175.856H325.641ZM303.328 170.606H298.734C298.038 170.606 297.37 170.883 296.878 171.375C296.386 171.867 296.109 172.535 296.109 173.231V188.981C296.109 189.677 296.386 190.345 296.878 190.837C297.37 191.33 298.038 191.606 298.734 191.606H303.328C306.113 191.606 308.783 190.5 310.753 188.531C312.722 186.562 313.828 183.891 313.828 181.106C313.828 178.321 312.722 175.651 310.753 173.682C308.783 171.712 306.113 170.606 303.328 170.606ZM303.328 186.356H301.359V175.856H303.328C304.72 175.856 306.056 176.409 307.04 177.394C308.025 178.378 308.578 179.714 308.578 181.106C308.578 182.499 308.025 183.834 307.04 184.819C306.056 185.803 304.72 186.356 303.328 186.356V186.356Z" fill="url(#paint12_radial_1340_2851)"/>
<path d="M277.078 162.731C277.774 162.731 278.442 162.455 278.934 161.962C279.426 161.47 279.703 160.802 279.703 160.106V131.231H308.578V146.981C308.578 147.677 308.855 148.345 309.347 148.837C309.839 149.33 310.507 149.606 311.203 149.606H326.953V160.106C326.953 160.802 327.23 161.47 327.722 161.962C328.214 162.455 328.882 162.731 329.578 162.731C330.274 162.731 330.942 162.455 331.434 161.962C331.926 161.47 332.203 160.802 332.203 160.106V146.981C332.208 146.632 332.141 146.285 332.005 145.964C331.87 145.642 331.669 145.351 331.416 145.111L313.073 126.736C312.573 126.248 311.901 125.977 311.203 125.981H279.703C278.311 125.981 276.975 126.534 275.991 127.519C275.006 128.503 274.453 129.839 274.453 131.231V160.106C274.453 160.802 274.73 161.47 275.222 161.962C275.714 162.455 276.382 162.731 277.078 162.731ZM313.828 134.939L323.245 144.356H313.828V134.939ZM282.328 170.606H277.078C276.382 170.606 275.714 170.883 275.222 171.375C274.73 171.867 274.453 172.535 274.453 173.231V188.981C274.453 189.677 274.73 190.345 275.222 190.837C275.714 191.33 276.382 191.606 277.078 191.606C277.774 191.606 278.442 191.33 278.934 190.837C279.426 190.345 279.703 189.677 279.703 188.981V186.356H282.328C284.417 186.356 286.42 185.527 287.896 184.05C289.373 182.573 290.203 180.57 290.203 178.481C290.203 176.393 289.373 174.39 287.896 172.913C286.42 171.436 284.417 170.606 282.328 170.606ZM282.328 181.106H279.703V175.856H282.328C283.024 175.856 283.692 176.133 284.184 176.625C284.676 177.117 284.953 177.785 284.953 178.481C284.953 179.177 284.676 179.845 284.184 180.337C283.692 180.83 283.024 181.106 282.328 181.106V181.106ZM325.641 175.856V179.794H330.891C331.587 179.794 332.254 180.07 332.747 180.563C333.239 181.055 333.516 181.723 333.516 182.419C333.516 183.115 333.239 183.783 332.747 184.275C332.254 184.767 331.587 185.044 330.891 185.044H325.641V188.981C325.641 189.677 325.364 190.345 324.872 190.837C324.379 191.33 323.712 191.606 323.016 191.606C322.319 191.606 321.652 191.33 321.159 190.837C320.667 190.345 320.391 189.677 320.391 188.981V173.231C320.391 172.535 320.667 171.867 321.159 171.375C321.652 170.883 322.319 170.606 323.016 170.606H332.203C332.899 170.606 333.567 170.883 334.059 171.375C334.551 171.867 334.828 172.535 334.828 173.231C334.828 173.927 334.551 174.595 334.059 175.087C333.567 175.58 332.899 175.856 332.203 175.856H325.641ZM303.328 170.606H298.734C298.038 170.606 297.37 170.883 296.878 171.375C296.386 171.867 296.109 172.535 296.109 173.231V188.981C296.109 189.677 296.386 190.345 296.878 190.837C297.37 191.33 298.038 191.606 298.734 191.606H303.328C306.113 191.606 308.783 190.5 310.753 188.531C312.722 186.562 313.828 183.891 313.828 181.106C313.828 178.321 312.722 175.651 310.753 173.682C308.783 171.712 306.113 170.606 303.328 170.606ZM303.328 186.356H301.359V175.856H303.328C304.72 175.856 306.056 176.409 307.04 177.394C308.025 178.378 308.578 179.714 308.578 181.106C308.578 182.499 308.025 183.834 307.04 184.819C306.056 185.803 304.72 186.356 303.328 186.356V186.356Z" fill="url(#paint13_radial_1340_2851)" fill-opacity="0.2"/>
<rect x="233.016" y="70.001" width="140.625" height="180.207" rx="10" stroke="url(#paint14_linear_1340_2851)" stroke-width="4" shape-rendering="crispEdges"/>
</g>
<defs>
<filter id="filter0_bddii_1340_2851" x="258.118" y="24.2239" width="350.247" height="377.97" filterUnits="userSpaceOnUse" color-interpolation-filters="sRGB">
<feFlood flood-opacity="0" result="BackgroundImageFix"/>
<feGaussianBlur in="BackgroundImageFix" stdDeviation="6.78044"/>
<feComposite in2="SourceAlpha" operator="in" result="effect1_backgroundBlur_1340_2851"/>
<feColorMatrix in="SourceAlpha" type="matrix" values="0 0 0 0 0 0 0 0 0 0 0 0 0 0 0 0 0 0 127 0" result="hardAlpha"/>
<feOffset dy="13.5609"/>
<feGaussianBlur stdDeviation="27.1218"/>
<feComposite in2="hardAlpha" operator="out"/>
<feColorMatrix type="matrix" values="0 0 0 0 0 0 0 0 0 0 0 0 0 0 0 0 0 0 0.03 0"/>
<feBlend mode="normal" in2="effect1_backgroundBlur_1340_2851" result="effect2_dropShadow_1340_2851"/>
<feColorMatrix in="SourceAlpha" type="matrix" values="0 0 0 0 0 0 0 0 0 0 0 0 0 0 0 0 0 0 127 0" result="hardAlpha"/>
<feOffset dy="13.5609"/>
<feGaussianBlur stdDeviation="40.6827"/>
<feComposite in2="hardAlpha" operator="out"/>
<feColorMatrix type="matrix" values="0 0 0 0 0.27451 0 0 0 0 0.564706 0 0 0 0 0.968627 0 0 0 0.05 0"/>
<feBlend mode="normal" in2="effect2_dropShadow_1340_2851" result="effect3_dropShadow_1340_2851"/>
<feBlend mode="normal" in="SourceGraphic" in2="effect3_dropShadow_1340_2851" result="shape"/>
<feColorMatrix in="SourceAlpha" type="matrix" values="0 0 0 0 0 0 0 0 0 0 0 0 0 0 0 0 0 0 127 0" result="hardAlpha"/>
<feOffset dy="1.67851"/>
<feComposite in2="hardAlpha" operator="arithmetic" k2="-1" k3="1"/>
<feColorMatrix type="matrix" values="0 0 0 0 1 0 0 0 0 1 0 0 0 0 1 0 0 0 1 0"/>
<feBlend mode="overlay" in2="shape" result="effect4_innerShadow_1340_2851"/>
<feColorMatrix in="SourceAlpha" type="matrix" values="0 0 0 0 0 0 0 0 0 0 0 0 0 0 0 0 0 0 127 0" result="hardAlpha"/>
<feOffset dx="-1.69628" dy="-3.39255"/>
<feComposite in2="hardAlpha" operator="arithmetic" k2="-1" k3="1"/>
<feColorMatrix type="matrix" values="0 0 0 0 1 0 0 0 0 1 0 0 0 0 1 0 0 0 0.6 0"/>
<feBlend mode="normal" in2="effect4_innerShadow_1340_2851" result="effect5_innerShadow_1340_2851"/>
</filter>
<filter id="filter1_bddii_1340_2851" x="-2.36481" y="24.9539" width="350.247" height="377.97" filterUnits="userSpaceOnUse" color-interpolation-filters="sRGB">
<feFlood flood-opacity="0" result="BackgroundImageFix"/>
<feGaussianBlur in="BackgroundImageFix" stdDeviation="6.78044"/>
<feComposite in2="SourceAlpha" operator="in" result="effect1_backgroundBlur_1340_2851"/>
<feColorMatrix in="SourceAlpha" type="matrix" values="0 0 0 0 0 0 0 0 0 0 0 0 0 0 0 0 0 0 127 0" result="hardAlpha"/>
<feOffset dy="13.5609"/>
<feGaussianBlur stdDeviation="27.1218"/>
<feComposite in2="hardAlpha" operator="out"/>
<feColorMatrix type="matrix" values="0 0 0 0 0 0 0 0 0 0 0 0 0 0 0 0 0 0 0.03 0"/>
<feBlend mode="normal" in2="effect1_backgroundBlur_1340_2851" result="effect2_dropShadow_1340_2851"/>
<feColorMatrix in="SourceAlpha" type="matrix" values="0 0 0 0 0 0 0 0 0 0 0 0 0 0 0 0 0 0 127 0" result="hardAlpha"/>
<feOffset dy="13.5609"/>
<feGaussianBlur stdDeviation="40.6827"/>
<feComposite in2="hardAlpha" operator="out"/>
<feColorMatrix type="matrix" values="0 0 0 0 0.27451 0 0 0 0 0.564706 0 0 0 0 0.968627 0 0 0 0.05 0"/>
<feBlend mode="normal" in2="effect2_dropShadow_1340_2851" result="effect3_dropShadow_1340_2851"/>
<feBlend mode="normal" in="SourceGraphic" in2="effect3_dropShadow_1340_2851" result="shape"/>
<feColorMatrix in="SourceAlpha" type="matrix" values="0 0 0 0 0 0 0 0 0 0 0 0 0 0 0 0 0 0 127 0" result="hardAlpha"/>
<feOffset dy="1.67851"/>
<feComposite in2="hardAlpha" operator="arithmetic" k2="-1" k3="1"/>
<feColorMatrix type="matrix" values="0 0 0 0 1 0 0 0 0 1 0 0 0 0 1 0 0 0 1 0"/>
<feBlend mode="overlay" in2="shape" result="effect4_innerShadow_1340_2851"/>
<feColorMatrix in="SourceAlpha" type="matrix" values="0 0 0 0 0 0 0 0 0 0 0 0 0 0 0 0 0 0 127 0" result="hardAlpha"/>
<feOffset dx="-1.69628" dy="-3.39255"/>
<feComposite in2="hardAlpha" operator="arithmetic" k2="-1" k3="1"/>
<feColorMatrix type="matrix" values="0 0 0 0 1 0 0 0 0 1 0 0 0 0 1 0 0 0 0.6 0"/>
<feBlend mode="normal" in2="effect4_innerShadow_1340_2851" result="effect5_innerShadow_1340_2851"/>
</filter>
<filter id="filter2_bddii_1340_2851" x="149.651" y="0.196538" width="307.356" height="346.938" filterUnits="userSpaceOnUse" color-interpolation-filters="sRGB">
<feFlood flood-opacity="0" result="BackgroundImageFix"/>
<feGaussianBlur in="BackgroundImageFix" stdDeviation="6.78044"/>
<feComposite in2="SourceAlpha" operator="in" result="effect1_backgroundBlur_1340_2851"/>
<feColorMatrix in="SourceAlpha" type="matrix" values="0 0 0 0 0 0 0 0 0 0 0 0 0 0 0 0 0 0 127 0" result="hardAlpha"/>
<feOffset dy="13.5609"/>
<feGaussianBlur stdDeviation="27.1218"/>
<feComposite in2="hardAlpha" operator="out"/>
<feColorMatrix type="matrix" values="0 0 0 0 0 0 0 0 0 0 0 0 0 0 0 0 0 0 0.03 0"/>
<feBlend mode="normal" in2="effect1_backgroundBlur_1340_2851" result="effect2_dropShadow_1340_2851"/>
<feColorMatrix in="SourceAlpha" type="matrix" values="0 0 0 0 0 0 0 0 0 0 0 0 0 0 0 0 0 0 127 0" result="hardAlpha"/>
<feOffset dy="13.5609"/>
<feGaussianBlur stdDeviation="40.6827"/>
<feComposite in2="hardAlpha" operator="out"/>
<feColorMatrix type="matrix" values="0 0 0 0 0.27451 0 0 0 0 0.564706 0 0 0 0 0.968627 0 0 0 0.05 0"/>
<feBlend mode="normal" in2="effect2_dropShadow_1340_2851" result="effect3_dropShadow_1340_2851"/>
<feBlend mode="normal" in="SourceGraphic" in2="effect3_dropShadow_1340_2851" result="shape"/>
<feColorMatrix in="SourceAlpha" type="matrix" values="0 0 0 0 0 0 0 0 0 0 0 0 0 0 0 0 0 0 127 0" result="hardAlpha"/>
<feOffset dy="1.67851"/>
<feComposite in2="hardAlpha" operator="arithmetic" k2="-1" k3="1"/>
<feColorMatrix type="matrix" values="0 0 0 0 1 0 0 0 0 1 0 0 0 0 1 0 0 0 1 0"/>
<feBlend mode="overlay" in2="shape" result="effect4_innerShadow_1340_2851"/>
<feColorMatrix in="SourceAlpha" type="matrix" values="0 0 0 0 0 0 0 0 0 0 0 0 0 0 0 0 0 0 127 0" result="hardAlpha"/>
<feOffset dx="-1.69628" dy="-3.39255"/>
<feComposite in2="hardAlpha" operator="arithmetic" k2="-1" k3="1"/>
<feColorMatrix type="matrix" values="0 0 0 0 1 0 0 0 0 1 0 0 0 0 1 0 0 0 0.6 0"/>
<feBlend mode="normal" in2="effect4_innerShadow_1340_2851" result="effect5_innerShadow_1340_2851"/>
</filter>
<linearGradient id="paint0_linear_1340_2851" x1="28.3204" y1="5.69835" x2="144.176" y2="141.621" gradientUnits="userSpaceOnUse">
<stop stop-color="#DBE0E7"/>
<stop offset="1" stop-color="#F8FBFF"/>
</linearGradient>
<radialGradient id="paint1_radial_1340_2851" cx="0" cy="0" r="1" gradientUnits="userSpaceOnUse" gradientTransform="translate(421.557 184.796) rotate(87.9181) scale(47.5439 72.5386)">
<stop stop-color="#83E9FF" stop-opacity="0.49"/>
<stop offset="0.620911" stop-color="#A4AEE6" stop-opacity="0.38"/>
<stop offset="1" stop-color="#609BEB" stop-opacity="0.47"/>
</radialGradient>
<radialGradient id="paint2_radial_1340_2851" cx="0" cy="0" r="1" gradientUnits="userSpaceOnUse" gradientTransform="translate(402.376 220.856) rotate(-27.8749) scale(35.8326 22.0249)">
<stop stop-color="#87DBFF" stop-opacity="0.6"/>
<stop offset="1" stop-color="#B1B9D5" stop-opacity="0"/>
</radialGradient>
<radialGradient id="paint3_radial_1340_2851" cx="0" cy="0" r="1" gradientUnits="userSpaceOnUse" gradientTransform="translate(427.423 193.973) rotate(67.8692) scale(35.5902 51.7893)">
<stop stop-color="#77FFDE"/>
<stop offset="1" stop-color="#B4D7EA" stop-opacity="0"/>
</radialGradient>
<linearGradient id="paint4_linear_1340_2851" x1="22.0199" y1="31.2372" x2="135.449" y2="149.63" gradientUnits="userSpaceOnUse">
<stop stop-color="#D8D8D8" stop-opacity="0"/>
<stop offset="1" stop-color="white"/>
</linearGradient>
<linearGradient id="paint5_linear_1340_2851" x1="28.3204" y1="5.69835" x2="144.176" y2="141.621" gradientUnits="userSpaceOnUse">
<stop stop-color="#DBE0E7"/>
<stop offset="1" stop-color="#F8FBFF"/>
</linearGradient>
<radialGradient id="paint6_radial_1340_2851" cx="0" cy="0" r="1" gradientUnits="userSpaceOnUse" gradientTransform="translate(157.052 192.994) rotate(58.729) scale(47.2138 69.3695)">
<stop stop-color="#83E9FF" stop-opacity="0.49"/>
<stop offset="0.620911" stop-color="#A4AEE6" stop-opacity="0.38"/>
<stop offset="1" stop-color="#609BEB" stop-opacity="0.47"/>
</radialGradient>
<radialGradient id="paint7_radial_1340_2851" cx="0" cy="0" r="1" gradientUnits="userSpaceOnUse" gradientTransform="translate(158.787 233.578) rotate(-59.0661) scale(34.8772 21.4894)">
<stop stop-color="#87DBFF" stop-opacity="0.6"/>
<stop offset="1" stop-color="#B1B9D5" stop-opacity="0"/>
</radialGradient>
<radialGradient id="paint8_radial_1340_2851" cx="0" cy="0" r="1" gradientUnits="userSpaceOnUse" gradientTransform="translate(166.338 198.1) rotate(39.2052) scale(34.9137 50.1359)">
<stop stop-color="#77FFDE"/>
<stop offset="1" stop-color="#B4D7EA" stop-opacity="0"/>
</radialGradient>
<linearGradient id="paint9_linear_1340_2851" x1="22.0199" y1="31.2372" x2="135.449" y2="149.63" gradientUnits="userSpaceOnUse">
<stop stop-color="#D8D8D8" stop-opacity="0"/>
<stop offset="1" stop-color="white"/>
</linearGradient>
<linearGradient id="paint10_linear_1340_2851" x1="259.345" y1="73.6981" x2="375.167" y2="209.649" gradientUnits="userSpaceOnUse">
<stop stop-color="#DBE0E7"/>
<stop offset="1" stop-color="#F8FBFF"/>
</linearGradient>
<radialGradient id="paint11_radial_1340_2851" cx="0" cy="0" r="1" gradientUnits="userSpaceOnUse" gradientTransform="translate(290.769 148.038) rotate(72.3399) scale(45.7233 72.0065)">
<stop stop-color="#83E9FF" stop-opacity="0.49"/>
<stop offset="0.620911" stop-color="#A4AEE6" stop-opacity="0.38"/>
<stop offset="1" stop-color="#609BEB" stop-opacity="0.47"/>
</radialGradient>
<radialGradient id="paint12_radial_1340_2851" cx="0" cy="0" r="1" gradientUnits="userSpaceOnUse" gradientTransform="translate(281.577 186.171) rotate(-41.7261) scale(35.0748 21.4804)">
<stop stop-color="#87DBFF" stop-opacity="0.6"/>
<stop offset="1" stop-color="#B1B9D5" stop-opacity="0"/>
</radialGradient>
<radialGradient id="paint13_radial_1340_2851" cx="0" cy="0" r="1" gradientUnits="userSpaceOnUse" gradientTransform="translate(298.773 155.084) rotate(51.8519) scale(34.6035 50.8506)">
<stop stop-color="#77FFDE"/>
<stop offset="1" stop-color="#B4D7EA" stop-opacity="0"/>
</radialGradient>
<linearGradient id="paint14_linear_1340_2851" x1="253.042" y1="99.2315" x2="366.444" y2="217.656" gradientUnits="userSpaceOnUse">
<stop stop-color="#D8D8D8" stop-opacity="0"/>
<stop offset="1" stop-color="white"/>
</linearGradient>
<clipPath id="clip0_1340_2851">
<rect width="84" height="84" fill="white" transform="translate(121.345 170.635) rotate(-14.95)"/>
</clipPath>
</defs>
</svg>
