<svg width="448" height="240" viewBox="0 0 448 240" fill="none" xmlns="http://www.w3.org/2000/svg">
<g filter="url(#filter0_iiii_2_124)">
<path d="M436.406 58.2407L319.907 27.1249C313.504 25.4147 306.918 29.2167 305.198 35.6169L263.599 190.37C261.878 196.771 265.674 203.345 272.077 205.055L388.576 236.171C394.979 237.882 401.564 234.079 403.285 227.679L444.884 72.9259C446.605 66.5256 442.809 59.9509 436.406 58.2407Z" fill="url(#paint0_linear_2_124)" fill-opacity="0.2"/>
<path d="M380.625 136.755C380.973 137.363 381.066 138.084 380.886 138.76C380.705 139.437 380.264 140.015 379.66 140.369L346.7 159.383C342.481 161.824 337.466 162.488 332.757 161.231C328.049 159.974 324.032 156.897 321.592 152.679C319.151 148.46 318.487 143.445 319.744 138.737C321.001 134.028 324.078 130.012 328.296 127.571L368.292 104.085C369.784 103.168 371.445 102.559 373.177 102.294C374.909 102.029 376.676 102.113 378.375 102.542C380.073 102.97 381.669 103.735 383.067 104.79C384.466 105.845 385.639 107.169 386.517 108.685C387.396 110.201 387.962 111.877 388.183 113.615C388.404 115.353 388.274 117.117 387.802 118.804C387.33 120.491 386.525 122.067 385.434 123.438C384.344 124.809 382.99 125.948 381.452 126.787L341.457 150.274C340.562 150.8 339.572 151.143 338.543 151.283C337.515 151.422 336.469 151.355 335.466 151.086C333.958 150.687 332.602 149.849 331.57 148.678C330.539 147.507 329.878 146.056 329.673 144.51C329.467 142.963 329.726 141.39 330.416 139.99C331.106 138.591 332.196 137.428 333.548 136.649L367.116 116.88C367.413 116.685 367.747 116.552 368.097 116.489C368.447 116.427 368.806 116.436 369.152 116.516C369.498 116.597 369.824 116.746 370.111 116.956C370.398 117.167 370.639 117.433 370.819 117.739C371 118.045 371.117 118.384 371.162 118.737C371.208 119.089 371.181 119.448 371.084 119.789C370.987 120.131 370.822 120.45 370.598 120.726C370.374 121.002 370.097 121.23 369.782 121.396L336.205 141.196C335.902 141.367 335.636 141.598 335.422 141.873C335.209 142.148 335.052 142.463 334.962 142.8C334.778 143.474 334.866 144.193 335.208 144.802C335.571 145.397 336.148 145.831 336.821 146.013C337.494 146.197 338.213 146.109 338.822 145.767L378.795 122.24C379.697 121.727 380.488 121.039 381.122 120.217C381.755 119.395 382.219 118.455 382.485 117.452C382.891 115.945 382.84 114.352 382.34 112.874C381.839 111.396 380.91 110.1 379.672 109.151C378.434 108.202 376.941 107.642 375.384 107.542C373.827 107.443 372.275 107.808 370.926 108.592L330.954 132.118C329.414 132.955 328.058 134.092 326.966 135.461C325.873 136.83 325.065 138.404 324.59 140.09C324.115 141.776 323.982 143.541 324.199 145.279C324.417 147.017 324.98 148.694 325.856 150.212C326.732 151.729 327.903 153.055 329.3 154.113C330.696 155.17 332.29 155.938 333.988 156.369C335.686 156.801 337.453 156.889 339.185 156.627C340.918 156.365 342.58 155.759 344.074 154.844L377.011 135.79C377.619 135.442 378.339 135.348 379.016 135.529C379.693 135.71 380.271 136.15 380.625 136.755Z" fill="#404040"/>
<path d="M380.625 136.755C380.973 137.363 381.066 138.084 380.886 138.76C380.705 139.437 380.264 140.015 379.66 140.369L346.7 159.383C342.481 161.824 337.466 162.488 332.757 161.231C328.049 159.974 324.032 156.897 321.592 152.679C319.151 148.46 318.487 143.445 319.744 138.737C321.001 134.028 324.078 130.012 328.296 127.571L368.292 104.085C369.784 103.168 371.445 102.559 373.177 102.294C374.909 102.029 376.676 102.113 378.375 102.542C380.073 102.97 381.669 103.735 383.067 104.79C384.466 105.845 385.639 107.169 386.517 108.685C387.396 110.201 387.962 111.877 388.183 113.615C388.404 115.353 388.274 117.117 387.802 118.804C387.33 120.491 386.525 122.067 385.434 123.438C384.344 124.809 382.99 125.948 381.452 126.787L341.457 150.274C340.562 150.8 339.572 151.143 338.543 151.283C337.515 151.422 336.469 151.355 335.466 151.086C333.958 150.687 332.602 149.849 331.57 148.678C330.539 147.507 329.878 146.056 329.673 144.51C329.467 142.963 329.726 141.39 330.416 139.99C331.106 138.591 332.196 137.428 333.548 136.649L367.116 116.88C367.413 116.685 367.747 116.552 368.097 116.489C368.447 116.427 368.806 116.436 369.152 116.516C369.498 116.597 369.824 116.746 370.111 116.956C370.398 117.167 370.639 117.433 370.819 117.739C371 118.045 371.117 118.384 371.162 118.737C371.208 119.089 371.181 119.448 371.084 119.789C370.987 120.131 370.822 120.45 370.598 120.726C370.374 121.002 370.097 121.23 369.782 121.396L336.205 141.196C335.902 141.367 335.636 141.598 335.422 141.873C335.209 142.148 335.052 142.463 334.962 142.8C334.778 143.474 334.866 144.193 335.208 144.802C335.571 145.397 336.148 145.831 336.821 146.013C337.494 146.197 338.213 146.109 338.822 145.767L378.795 122.24C379.697 121.727 380.488 121.039 381.122 120.217C381.755 119.395 382.219 118.455 382.485 117.452C382.891 115.945 382.84 114.352 382.34 112.874C381.839 111.396 380.91 110.1 379.672 109.151C378.434 108.202 376.941 107.642 375.384 107.542C373.827 107.443 372.275 107.808 370.926 108.592L330.954 132.118C329.414 132.955 328.058 134.092 326.966 135.461C325.873 136.83 325.065 138.404 324.59 140.09C324.115 141.776 323.982 143.541 324.199 145.279C324.417 147.017 324.98 148.694 325.856 150.212C326.732 151.729 327.903 153.055 329.3 154.113C330.696 155.17 332.29 155.938 333.988 156.369C335.686 156.801 337.453 156.889 339.185 156.627C340.918 156.365 342.58 155.759 344.074 154.844L377.011 135.79C377.619 135.442 378.339 135.348 379.016 135.529C379.693 135.71 380.271 136.15 380.625 136.755Z" fill="url(#paint1_radial_2_124)"/>
<path d="M380.625 136.755C380.973 137.363 381.066 138.084 380.886 138.76C380.705 139.437 380.264 140.015 379.66 140.369L346.7 159.383C342.481 161.824 337.466 162.488 332.757 161.231C328.049 159.974 324.032 156.897 321.592 152.679C319.151 148.46 318.487 143.445 319.744 138.737C321.001 134.028 324.078 130.012 328.296 127.571L368.292 104.085C369.784 103.168 371.445 102.559 373.177 102.294C374.909 102.029 376.676 102.113 378.375 102.542C380.073 102.97 381.669 103.735 383.067 104.79C384.466 105.845 385.639 107.169 386.517 108.685C387.396 110.201 387.962 111.877 388.183 113.615C388.404 115.353 388.274 117.117 387.802 118.804C387.33 120.491 386.525 122.067 385.434 123.438C384.344 124.809 382.99 125.948 381.452 126.787L341.457 150.274C340.562 150.8 339.572 151.143 338.543 151.283C337.515 151.422 336.469 151.355 335.466 151.086C333.958 150.687 332.602 149.849 331.57 148.678C330.539 147.507 329.878 146.056 329.673 144.51C329.467 142.963 329.726 141.39 330.416 139.99C331.106 138.591 332.196 137.428 333.548 136.649L367.116 116.88C367.413 116.685 367.747 116.552 368.097 116.489C368.447 116.427 368.806 116.436 369.152 116.516C369.498 116.597 369.824 116.746 370.111 116.956C370.398 117.167 370.639 117.433 370.819 117.739C371 118.045 371.117 118.384 371.162 118.737C371.208 119.089 371.181 119.448 371.084 119.789C370.987 120.131 370.822 120.45 370.598 120.726C370.374 121.002 370.097 121.23 369.782 121.396L336.205 141.196C335.902 141.367 335.636 141.598 335.422 141.873C335.209 142.148 335.052 142.463 334.962 142.8C334.778 143.474 334.866 144.193 335.208 144.802C335.571 145.397 336.148 145.831 336.821 146.013C337.494 146.197 338.213 146.109 338.822 145.767L378.795 122.24C379.697 121.727 380.488 121.039 381.122 120.217C381.755 119.395 382.219 118.455 382.485 117.452C382.891 115.945 382.84 114.352 382.34 112.874C381.839 111.396 380.91 110.1 379.672 109.151C378.434 108.202 376.941 107.642 375.384 107.542C373.827 107.443 372.275 107.808 370.926 108.592L330.954 132.118C329.414 132.955 328.058 134.092 326.966 135.461C325.873 136.83 325.065 138.404 324.59 140.09C324.115 141.776 323.982 143.541 324.199 145.279C324.417 147.017 324.98 148.694 325.856 150.212C326.732 151.729 327.903 153.055 329.3 154.113C330.696 155.17 332.29 155.938 333.988 156.369C335.686 156.801 337.453 156.889 339.185 156.627C340.918 156.365 342.58 155.759 344.074 154.844L377.011 135.79C377.619 135.442 378.339 135.348 379.016 135.529C379.693 135.71 380.271 136.15 380.625 136.755Z" fill="url(#paint2_radial_2_124)"/>
<path d="M380.625 136.755C380.973 137.363 381.066 138.084 380.886 138.76C380.705 139.437 380.264 140.015 379.66 140.369L346.7 159.383C342.481 161.824 337.466 162.488 332.757 161.231C328.049 159.974 324.032 156.897 321.592 152.679C319.151 148.46 318.487 143.445 319.744 138.737C321.001 134.028 324.078 130.012 328.296 127.571L368.292 104.085C369.784 103.168 371.445 102.559 373.177 102.294C374.909 102.029 376.676 102.113 378.375 102.542C380.073 102.97 381.669 103.735 383.067 104.79C384.466 105.845 385.639 107.169 386.517 108.685C387.396 110.201 387.962 111.877 388.183 113.615C388.404 115.353 388.274 117.117 387.802 118.804C387.33 120.491 386.525 122.067 385.434 123.438C384.344 124.809 382.99 125.948 381.452 126.787L341.457 150.274C340.562 150.8 339.572 151.143 338.543 151.283C337.515 151.422 336.469 151.355 335.466 151.086C333.958 150.687 332.602 149.849 331.57 148.678C330.539 147.507 329.878 146.056 329.673 144.51C329.467 142.963 329.726 141.39 330.416 139.99C331.106 138.591 332.196 137.428 333.548 136.649L367.116 116.88C367.413 116.685 367.747 116.552 368.097 116.489C368.447 116.427 368.806 116.436 369.152 116.516C369.498 116.597 369.824 116.746 370.111 116.956C370.398 117.167 370.639 117.433 370.819 117.739C371 118.045 371.117 118.384 371.162 118.737C371.208 119.089 371.181 119.448 371.084 119.789C370.987 120.131 370.822 120.45 370.598 120.726C370.374 121.002 370.097 121.23 369.782 121.396L336.205 141.196C335.902 141.367 335.636 141.598 335.422 141.873C335.209 142.148 335.052 142.463 334.962 142.8C334.778 143.474 334.866 144.193 335.208 144.802C335.571 145.397 336.148 145.831 336.821 146.013C337.494 146.197 338.213 146.109 338.822 145.767L378.795 122.24C379.697 121.727 380.488 121.039 381.122 120.217C381.755 119.395 382.219 118.455 382.485 117.452C382.891 115.945 382.84 114.352 382.34 112.874C381.839 111.396 380.91 110.1 379.672 109.151C378.434 108.202 376.941 107.642 375.384 107.542C373.827 107.443 372.275 107.808 370.926 108.592L330.954 132.118C329.414 132.955 328.058 134.092 326.966 135.461C325.873 136.83 325.065 138.404 324.59 140.09C324.115 141.776 323.982 143.541 324.199 145.279C324.417 147.017 324.98 148.694 325.856 150.212C326.732 151.729 327.903 153.055 329.3 154.113C330.696 155.17 332.29 155.938 333.988 156.369C335.686 156.801 337.453 156.889 339.185 156.627C340.918 156.365 342.58 155.759 344.074 154.844L377.011 135.79C377.619 135.442 378.339 135.348 379.016 135.529C379.693 135.71 380.271 136.15 380.625 136.755Z" fill="url(#paint3_radial_2_124)" fill-opacity="0.2"/>
<path d="M435.886 60.1722L319.387 29.0563C314.051 27.6312 308.564 30.7996 307.13 36.1331L265.531 190.886C264.097 196.22 267.26 201.699 272.596 203.124L389.095 234.24C394.431 235.665 399.919 232.497 401.352 227.163L442.952 72.4098C444.385 67.0763 441.222 61.5973 435.886 60.1722Z" stroke="url(#paint4_linear_2_124)" stroke-width="4"/>
</g>
<g filter="url(#filter1_iiii_2_124)">
<path d="M128.093 27.8546L11.5941 58.9704C5.19112 60.6806 1.39518 67.2554 3.11563 73.6556L44.7149 228.409C46.4354 234.809 53.0207 238.611 59.4237 236.901L175.923 205.785C182.326 204.075 186.122 197.5 184.401 191.1L142.802 36.3467C141.082 29.9464 134.496 26.1444 128.093 27.8546Z" fill="url(#paint5_linear_2_124)" fill-opacity="0.2"/>
<path d="M117.056 110.637L94.5629 97.624C93.9539 97.282 93.2349 97.193 92.5609 97.377L62.1279 105.504C60.7819 105.863 59.6349 106.742 58.9379 107.947C58.2399 109.152 58.0499 110.585 58.4099 111.93L73.3079 167.725C73.6669 169.071 74.5459 170.218 75.7509 170.915C76.9559 171.613 78.3889 171.803 79.7339 171.443L125.385 159.254C126.73 158.895 127.878 158.016 128.575 156.811C129.272 155.605 129.462 154.173 129.103 152.827L118.268 112.249C118.092 111.573 117.656 110.994 117.056 110.637ZM97.4079 105.355L108.936 112.024L99.8379 114.453L97.4079 105.355ZM124.031 154.182L78.3799 166.371L63.4819 110.576L91.3799 103.127L95.4429 118.344C95.6219 119.016 96.0619 119.59 96.6639 119.939C97.2669 120.287 97.9829 120.382 98.6559 120.203L113.873 116.14L124.031 154.182Z" fill="#404040"/>
<path d="M117.056 110.637L94.5629 97.624C93.9539 97.282 93.2349 97.193 92.5609 97.377L62.1279 105.504C60.7819 105.863 59.6349 106.742 58.9379 107.947C58.2399 109.152 58.0499 110.585 58.4099 111.93L73.3079 167.725C73.6669 169.071 74.5459 170.218 75.7509 170.915C76.9559 171.613 78.3889 171.803 79.7339 171.443L125.385 159.254C126.73 158.895 127.878 158.016 128.575 156.811C129.272 155.605 129.462 154.173 129.103 152.827L118.268 112.249C118.092 111.573 117.656 110.994 117.056 110.637ZM97.4079 105.355L108.936 112.024L99.8379 114.453L97.4079 105.355ZM124.031 154.182L78.3799 166.371L63.4819 110.576L91.3799 103.127L95.4429 118.344C95.6219 119.016 96.0619 119.59 96.6639 119.939C97.2669 120.287 97.9829 120.382 98.6559 120.203L113.873 116.14L124.031 154.182Z" fill="url(#paint6_radial_2_124)"/>
<path d="M117.056 110.637L94.5629 97.624C93.9539 97.282 93.2349 97.193 92.5609 97.377L62.1279 105.504C60.7819 105.863 59.6349 106.742 58.9379 107.947C58.2399 109.152 58.0499 110.585 58.4099 111.93L73.3079 167.725C73.6669 169.071 74.5459 170.218 75.7509 170.915C76.9559 171.613 78.3889 171.803 79.7339 171.443L125.385 159.254C126.73 158.895 127.878 158.016 128.575 156.811C129.272 155.605 129.462 154.173 129.103 152.827L118.268 112.249C118.092 111.573 117.656 110.994 117.056 110.637ZM97.4079 105.355L108.936 112.024L99.8379 114.453L97.4079 105.355ZM124.031 154.182L78.3799 166.371L63.4819 110.576L91.3799 103.127L95.4429 118.344C95.6219 119.016 96.0619 119.59 96.6639 119.939C97.2669 120.287 97.9829 120.382 98.6559 120.203L113.873 116.14L124.031 154.182Z" fill="url(#paint7_radial_2_124)"/>
<path d="M117.056 110.637L94.5629 97.624C93.9539 97.282 93.2349 97.193 92.5609 97.377L62.1279 105.504C60.7819 105.863 59.6349 106.742 58.9379 107.947C58.2399 109.152 58.0499 110.585 58.4099 111.93L73.3079 167.725C73.6669 169.071 74.5459 170.218 75.7509 170.915C76.9559 171.613 78.3889 171.803 79.7339 171.443L125.385 159.254C126.73 158.895 127.878 158.016 128.575 156.811C129.272 155.605 129.462 154.173 129.103 152.827L118.268 112.249C118.092 111.573 117.656 110.994 117.056 110.637ZM97.4079 105.355L108.936 112.024L99.8379 114.453L97.4079 105.355ZM124.031 154.182L78.3799 166.371L63.4819 110.576L91.3799 103.127L95.4429 118.344C95.6219 119.016 96.0619 119.59 96.6639 119.939C97.2669 120.287 97.9829 120.382 98.6559 120.203L113.873 116.14L124.031 154.182Z" fill="url(#paint8_radial_2_124)" fill-opacity="0.2"/>
<path d="M128.612 29.7859L12.1132 60.9018C6.77743 62.3269 3.61415 67.8059 5.04785 73.1394L46.6472 227.893C48.0809 233.226 53.5686 236.395 58.9045 234.97L175.404 203.854C180.739 202.429 183.903 196.95 182.469 191.616L140.87 36.8627C139.436 31.5292 133.948 28.3608 128.612 29.7859Z" stroke="url(#paint9_linear_2_124)" stroke-width="4"/>
</g>
<g filter="url(#filter2_iiii_2_124)">
<path d="M284.641 0.000976562H164.016C157.389 0.000976562 152.016 5.37356 152.016 12.001V172.208C152.016 178.835 157.389 184.208 164.016 184.208H284.641C291.269 184.208 296.641 178.835 296.641 172.208V12.001C296.641 5.37356 291.269 0.000976562 284.641 0.000976562Z" fill="url(#paint10_linear_2_124)" fill-opacity="0.2"/>
<path d="M198.078 94.731C198.774 94.731 199.442 94.455 199.934 93.962C200.426 93.47 200.703 92.802 200.703 92.106V63.231H229.578V78.981C229.578 79.677 229.855 80.345 230.347 80.837C230.839 81.33 231.507 81.606 232.203 81.606H247.953V92.106C247.953 92.802 248.23 93.47 248.722 93.962C249.214 94.455 249.882 94.731 250.578 94.731C251.274 94.731 251.942 94.455 252.434 93.962C252.926 93.47 253.203 92.802 253.203 92.106V78.981C253.208 78.632 253.141 78.285 253.005 77.964C252.87 77.642 252.669 77.351 252.416 77.111L234.073 58.736C233.573 58.248 232.901 57.977 232.203 57.981H200.703C199.311 57.981 197.975 58.534 196.991 59.519C196.006 60.503 195.453 61.839 195.453 63.231V92.106C195.453 92.802 195.73 93.47 196.222 93.962C196.714 94.455 197.382 94.731 198.078 94.731ZM234.828 66.939L244.245 76.356H234.828V66.939ZM203.328 102.606H198.078C197.382 102.606 196.714 102.883 196.222 103.375C195.73 103.867 195.453 104.535 195.453 105.231V120.981C195.453 121.677 195.73 122.345 196.222 122.837C196.714 123.33 197.382 123.606 198.078 123.606C198.774 123.606 199.442 123.33 199.934 122.837C200.426 122.345 200.703 121.677 200.703 120.981V118.356H203.328C205.417 118.356 207.42 117.527 208.896 116.05C210.373 114.573 211.203 112.57 211.203 110.481C211.203 108.393 210.373 106.39 208.896 104.913C207.42 103.436 205.417 102.606 203.328 102.606ZM203.328 113.106H200.703V107.856H203.328C204.024 107.856 204.692 108.133 205.184 108.625C205.676 109.117 205.953 109.785 205.953 110.481C205.953 111.177 205.676 111.845 205.184 112.337C204.692 112.83 204.024 113.106 203.328 113.106ZM246.641 107.856V111.794H251.891C252.587 111.794 253.254 112.07 253.747 112.563C254.239 113.055 254.516 113.723 254.516 114.419C254.516 115.115 254.239 115.783 253.747 116.275C253.254 116.767 252.587 117.044 251.891 117.044H246.641V120.981C246.641 121.677 246.364 122.345 245.872 122.837C245.379 123.33 244.712 123.606 244.016 123.606C243.319 123.606 242.652 123.33 242.159 122.837C241.667 122.345 241.391 121.677 241.391 120.981V105.231C241.391 104.535 241.667 103.867 242.159 103.375C242.652 102.883 243.319 102.606 244.016 102.606H253.203C253.899 102.606 254.567 102.883 255.059 103.375C255.551 103.867 255.828 104.535 255.828 105.231C255.828 105.927 255.551 106.595 255.059 107.087C254.567 107.58 253.899 107.856 253.203 107.856H246.641ZM224.328 102.606H219.734C219.038 102.606 218.37 102.883 217.878 103.375C217.386 103.867 217.109 104.535 217.109 105.231V120.981C217.109 121.677 217.386 122.345 217.878 122.837C218.37 123.33 219.038 123.606 219.734 123.606H224.328C227.113 123.606 229.783 122.5 231.753 120.531C233.722 118.562 234.828 115.891 234.828 113.106C234.828 110.321 233.722 107.651 231.753 105.682C229.783 103.712 227.113 102.606 224.328 102.606ZM224.328 118.356H222.359V107.856H224.328C225.72 107.856 227.056 108.409 228.04 109.394C229.025 110.378 229.578 111.714 229.578 113.106C229.578 114.499 229.025 115.834 228.04 116.819C227.056 117.803 225.72 118.356 224.328 118.356Z" fill="#404040"/>
<path d="M198.078 94.731C198.774 94.731 199.442 94.455 199.934 93.962C200.426 93.47 200.703 92.802 200.703 92.106V63.231H229.578V78.981C229.578 79.677 229.855 80.345 230.347 80.837C230.839 81.33 231.507 81.606 232.203 81.606H247.953V92.106C247.953 92.802 248.23 93.47 248.722 93.962C249.214 94.455 249.882 94.731 250.578 94.731C251.274 94.731 251.942 94.455 252.434 93.962C252.926 93.47 253.203 92.802 253.203 92.106V78.981C253.208 78.632 253.141 78.285 253.005 77.964C252.87 77.642 252.669 77.351 252.416 77.111L234.073 58.736C233.573 58.248 232.901 57.977 232.203 57.981H200.703C199.311 57.981 197.975 58.534 196.991 59.519C196.006 60.503 195.453 61.839 195.453 63.231V92.106C195.453 92.802 195.73 93.47 196.222 93.962C196.714 94.455 197.382 94.731 198.078 94.731ZM234.828 66.939L244.245 76.356H234.828V66.939ZM203.328 102.606H198.078C197.382 102.606 196.714 102.883 196.222 103.375C195.73 103.867 195.453 104.535 195.453 105.231V120.981C195.453 121.677 195.73 122.345 196.222 122.837C196.714 123.33 197.382 123.606 198.078 123.606C198.774 123.606 199.442 123.33 199.934 122.837C200.426 122.345 200.703 121.677 200.703 120.981V118.356H203.328C205.417 118.356 207.42 117.527 208.896 116.05C210.373 114.573 211.203 112.57 211.203 110.481C211.203 108.393 210.373 106.39 208.896 104.913C207.42 103.436 205.417 102.606 203.328 102.606ZM203.328 113.106H200.703V107.856H203.328C204.024 107.856 204.692 108.133 205.184 108.625C205.676 109.117 205.953 109.785 205.953 110.481C205.953 111.177 205.676 111.845 205.184 112.337C204.692 112.83 204.024 113.106 203.328 113.106ZM246.641 107.856V111.794H251.891C252.587 111.794 253.254 112.07 253.747 112.563C254.239 113.055 254.516 113.723 254.516 114.419C254.516 115.115 254.239 115.783 253.747 116.275C253.254 116.767 252.587 117.044 251.891 117.044H246.641V120.981C246.641 121.677 246.364 122.345 245.872 122.837C245.379 123.33 244.712 123.606 244.016 123.606C243.319 123.606 242.652 123.33 242.159 122.837C241.667 122.345 241.391 121.677 241.391 120.981V105.231C241.391 104.535 241.667 103.867 242.159 103.375C242.652 102.883 243.319 102.606 244.016 102.606H253.203C253.899 102.606 254.567 102.883 255.059 103.375C255.551 103.867 255.828 104.535 255.828 105.231C255.828 105.927 255.551 106.595 255.059 107.087C254.567 107.58 253.899 107.856 253.203 107.856H246.641ZM224.328 102.606H219.734C219.038 102.606 218.37 102.883 217.878 103.375C217.386 103.867 217.109 104.535 217.109 105.231V120.981C217.109 121.677 217.386 122.345 217.878 122.837C218.37 123.33 219.038 123.606 219.734 123.606H224.328C227.113 123.606 229.783 122.5 231.753 120.531C233.722 118.562 234.828 115.891 234.828 113.106C234.828 110.321 233.722 107.651 231.753 105.682C229.783 103.712 227.113 102.606 224.328 102.606ZM224.328 118.356H222.359V107.856H224.328C225.72 107.856 227.056 108.409 228.04 109.394C229.025 110.378 229.578 111.714 229.578 113.106C229.578 114.499 229.025 115.834 228.04 116.819C227.056 117.803 225.72 118.356 224.328 118.356Z" fill="url(#paint11_radial_2_124)"/>
<path d="M198.078 94.731C198.774 94.731 199.442 94.455 199.934 93.962C200.426 93.47 200.703 92.802 200.703 92.106V63.231H229.578V78.981C229.578 79.677 229.855 80.345 230.347 80.837C230.839 81.33 231.507 81.606 232.203 81.606H247.953V92.106C247.953 92.802 248.23 93.47 248.722 93.962C249.214 94.455 249.882 94.731 250.578 94.731C251.274 94.731 251.942 94.455 252.434 93.962C252.926 93.47 253.203 92.802 253.203 92.106V78.981C253.208 78.632 253.141 78.285 253.005 77.964C252.87 77.642 252.669 77.351 252.416 77.111L234.073 58.736C233.573 58.248 232.901 57.977 232.203 57.981H200.703C199.311 57.981 197.975 58.534 196.991 59.519C196.006 60.503 195.453 61.839 195.453 63.231V92.106C195.453 92.802 195.73 93.47 196.222 93.962C196.714 94.455 197.382 94.731 198.078 94.731ZM234.828 66.939L244.245 76.356H234.828V66.939ZM203.328 102.606H198.078C197.382 102.606 196.714 102.883 196.222 103.375C195.73 103.867 195.453 104.535 195.453 105.231V120.981C195.453 121.677 195.73 122.345 196.222 122.837C196.714 123.33 197.382 123.606 198.078 123.606C198.774 123.606 199.442 123.33 199.934 122.837C200.426 122.345 200.703 121.677 200.703 120.981V118.356H203.328C205.417 118.356 207.42 117.527 208.896 116.05C210.373 114.573 211.203 112.57 211.203 110.481C211.203 108.393 210.373 106.39 208.896 104.913C207.42 103.436 205.417 102.606 203.328 102.606ZM203.328 113.106H200.703V107.856H203.328C204.024 107.856 204.692 108.133 205.184 108.625C205.676 109.117 205.953 109.785 205.953 110.481C205.953 111.177 205.676 111.845 205.184 112.337C204.692 112.83 204.024 113.106 203.328 113.106ZM246.641 107.856V111.794H251.891C252.587 111.794 253.254 112.07 253.747 112.563C254.239 113.055 254.516 113.723 254.516 114.419C254.516 115.115 254.239 115.783 253.747 116.275C253.254 116.767 252.587 117.044 251.891 117.044H246.641V120.981C246.641 121.677 246.364 122.345 245.872 122.837C245.379 123.33 244.712 123.606 244.016 123.606C243.319 123.606 242.652 123.33 242.159 122.837C241.667 122.345 241.391 121.677 241.391 120.981V105.231C241.391 104.535 241.667 103.867 242.159 103.375C242.652 102.883 243.319 102.606 244.016 102.606H253.203C253.899 102.606 254.567 102.883 255.059 103.375C255.551 103.867 255.828 104.535 255.828 105.231C255.828 105.927 255.551 106.595 255.059 107.087C254.567 107.58 253.899 107.856 253.203 107.856H246.641ZM224.328 102.606H219.734C219.038 102.606 218.37 102.883 217.878 103.375C217.386 103.867 217.109 104.535 217.109 105.231V120.981C217.109 121.677 217.386 122.345 217.878 122.837C218.37 123.33 219.038 123.606 219.734 123.606H224.328C227.113 123.606 229.783 122.5 231.753 120.531C233.722 118.562 234.828 115.891 234.828 113.106C234.828 110.321 233.722 107.651 231.753 105.682C229.783 103.712 227.113 102.606 224.328 102.606ZM224.328 118.356H222.359V107.856H224.328C225.72 107.856 227.056 108.409 228.04 109.394C229.025 110.378 229.578 111.714 229.578 113.106C229.578 114.499 229.025 115.834 228.04 116.819C227.056 117.803 225.72 118.356 224.328 118.356Z" fill="url(#paint12_radial_2_124)"/>
<path d="M198.078 94.731C198.774 94.731 199.442 94.455 199.934 93.962C200.426 93.47 200.703 92.802 200.703 92.106V63.231H229.578V78.981C229.578 79.677 229.855 80.345 230.347 80.837C230.839 81.33 231.507 81.606 232.203 81.606H247.953V92.106C247.953 92.802 248.23 93.47 248.722 93.962C249.214 94.455 249.882 94.731 250.578 94.731C251.274 94.731 251.942 94.455 252.434 93.962C252.926 93.47 253.203 92.802 253.203 92.106V78.981C253.208 78.632 253.141 78.285 253.005 77.964C252.87 77.642 252.669 77.351 252.416 77.111L234.073 58.736C233.573 58.248 232.901 57.977 232.203 57.981H200.703C199.311 57.981 197.975 58.534 196.991 59.519C196.006 60.503 195.453 61.839 195.453 63.231V92.106C195.453 92.802 195.73 93.47 196.222 93.962C196.714 94.455 197.382 94.731 198.078 94.731ZM234.828 66.939L244.245 76.356H234.828V66.939ZM203.328 102.606H198.078C197.382 102.606 196.714 102.883 196.222 103.375C195.73 103.867 195.453 104.535 195.453 105.231V120.981C195.453 121.677 195.73 122.345 196.222 122.837C196.714 123.33 197.382 123.606 198.078 123.606C198.774 123.606 199.442 123.33 199.934 122.837C200.426 122.345 200.703 121.677 200.703 120.981V118.356H203.328C205.417 118.356 207.42 117.527 208.896 116.05C210.373 114.573 211.203 112.57 211.203 110.481C211.203 108.393 210.373 106.39 208.896 104.913C207.42 103.436 205.417 102.606 203.328 102.606ZM203.328 113.106H200.703V107.856H203.328C204.024 107.856 204.692 108.133 205.184 108.625C205.676 109.117 205.953 109.785 205.953 110.481C205.953 111.177 205.676 111.845 205.184 112.337C204.692 112.83 204.024 113.106 203.328 113.106ZM246.641 107.856V111.794H251.891C252.587 111.794 253.254 112.07 253.747 112.563C254.239 113.055 254.516 113.723 254.516 114.419C254.516 115.115 254.239 115.783 253.747 116.275C253.254 116.767 252.587 117.044 251.891 117.044H246.641V120.981C246.641 121.677 246.364 122.345 245.872 122.837C245.379 123.33 244.712 123.606 244.016 123.606C243.319 123.606 242.652 123.33 242.159 122.837C241.667 122.345 241.391 121.677 241.391 120.981V105.231C241.391 104.535 241.667 103.867 242.159 103.375C242.652 102.883 243.319 102.606 244.016 102.606H253.203C253.899 102.606 254.567 102.883 255.059 103.375C255.551 103.867 255.828 104.535 255.828 105.231C255.828 105.927 255.551 106.595 255.059 107.087C254.567 107.58 253.899 107.856 253.203 107.856H246.641ZM224.328 102.606H219.734C219.038 102.606 218.37 102.883 217.878 103.375C217.386 103.867 217.109 104.535 217.109 105.231V120.981C217.109 121.677 217.386 122.345 217.878 122.837C218.37 123.33 219.038 123.606 219.734 123.606H224.328C227.113 123.606 229.783 122.5 231.753 120.531C233.722 118.562 234.828 115.891 234.828 113.106C234.828 110.321 233.722 107.651 231.753 105.682C229.783 103.712 227.113 102.606 224.328 102.606ZM224.328 118.356H222.359V107.856H224.328C225.72 107.856 227.056 108.409 228.04 109.394C229.025 110.378 229.578 111.714 229.578 113.106C229.578 114.499 229.025 115.834 228.04 116.819C227.056 117.803 225.72 118.356 224.328 118.356Z" fill="url(#paint13_radial_2_124)" fill-opacity="0.2"/>
<path d="M284.641 2.00098H164.016C158.493 2.00098 154.016 6.47813 154.016 12.001V172.208C154.016 177.731 158.493 182.208 164.016 182.208H284.641C290.164 182.208 294.641 177.731 294.641 172.208V12.001C294.641 6.47813 290.164 2.00098 284.641 2.00098Z" stroke="url(#paint14_linear_2_124)" stroke-width="4"/>
</g>
<defs>
<filter id="filter0_iiii_2_124" x="261.488" y="23.3228" width="183.811" height="226.819" filterUnits="userSpaceOnUse" color-interpolation-filters="sRGB">
<feFlood flood-opacity="0" result="BackgroundImageFix"/>
<feBlend mode="normal" in="SourceGraphic" in2="BackgroundImageFix" result="shape"/>
<feColorMatrix in="SourceAlpha" type="matrix" values="0 0 0 0 0 0 0 0 0 0 0 0 0 0 0 0 0 0 127 0" result="hardAlpha"/>
<feOffset dy="13.5609"/>
<feGaussianBlur stdDeviation="27.1218"/>
<feComposite in2="hardAlpha" operator="arithmetic" k2="-1" k3="1"/>
<feColorMatrix type="matrix" values="0 0 0 0 0 0 0 0 0 0 0 0 0 0 0 0 0 0 0.03 0"/>
<feBlend mode="normal" in2="shape" result="effect1_innerShadow_2_124"/>
<feColorMatrix in="SourceAlpha" type="matrix" values="0 0 0 0 0 0 0 0 0 0 0 0 0 0 0 0 0 0 127 0" result="hardAlpha"/>
<feOffset dy="13.5609"/>
<feGaussianBlur stdDeviation="40.6827"/>
<feComposite in2="hardAlpha" operator="arithmetic" k2="-1" k3="1"/>
<feColorMatrix type="matrix" values="0 0 0 0 0.27451 0 0 0 0 0.564706 0 0 0 0 0.968627 0 0 0 0.05 0"/>
<feBlend mode="normal" in2="effect1_innerShadow_2_124" result="effect2_innerShadow_2_124"/>
<feColorMatrix in="SourceAlpha" type="matrix" values="0 0 0 0 0 0 0 0 0 0 0 0 0 0 0 0 0 0 127 0" result="hardAlpha"/>
<feOffset dy="1.67851"/>
<feGaussianBlur stdDeviation="2"/>
<feComposite in2="hardAlpha" operator="arithmetic" k2="-1" k3="1"/>
<feColorMatrix type="matrix" values="0 0 0 0 1 0 0 0 0 1 0 0 0 0 1 0 0 0 1 0"/>
<feBlend mode="overlay" in2="effect2_innerShadow_2_124" result="effect3_innerShadow_2_124"/>
<feColorMatrix in="SourceAlpha" type="matrix" values="0 0 0 0 0 0 0 0 0 0 0 0 0 0 0 0 0 0 127 0" result="hardAlpha"/>
<feOffset dx="-1.69628" dy="-3.39255"/>
<feGaussianBlur stdDeviation="2"/>
<feComposite in2="hardAlpha" operator="arithmetic" k2="-1" k3="1"/>
<feColorMatrix type="matrix" values="0 0 0 0 1 0 0 0 0 1 0 0 0 0 1 0 0 0 0.6 0"/>
<feBlend mode="normal" in2="effect3_innerShadow_2_124" result="effect4_innerShadow_2_124"/>
</filter>
<filter id="filter1_iiii_2_124" x="1.00514" y="24.0524" width="183.81" height="226.819" filterUnits="userSpaceOnUse" color-interpolation-filters="sRGB">
<feFlood flood-opacity="0" result="BackgroundImageFix"/>
<feBlend mode="normal" in="SourceGraphic" in2="BackgroundImageFix" result="shape"/>
<feColorMatrix in="SourceAlpha" type="matrix" values="0 0 0 0 0 0 0 0 0 0 0 0 0 0 0 0 0 0 127 0" result="hardAlpha"/>
<feOffset dy="13.5609"/>
<feGaussianBlur stdDeviation="27.1218"/>
<feComposite in2="hardAlpha" operator="arithmetic" k2="-1" k3="1"/>
<feColorMatrix type="matrix" values="0 0 0 0 0 0 0 0 0 0 0 0 0 0 0 0 0 0 0.03 0"/>
<feBlend mode="normal" in2="shape" result="effect1_innerShadow_2_124"/>
<feColorMatrix in="SourceAlpha" type="matrix" values="0 0 0 0 0 0 0 0 0 0 0 0 0 0 0 0 0 0 127 0" result="hardAlpha"/>
<feOffset dy="13.5609"/>
<feGaussianBlur stdDeviation="40.6827"/>
<feComposite in2="hardAlpha" operator="arithmetic" k2="-1" k3="1"/>
<feColorMatrix type="matrix" values="0 0 0 0 0.27451 0 0 0 0 0.564706 0 0 0 0 0.968627 0 0 0 0.05 0"/>
<feBlend mode="normal" in2="effect1_innerShadow_2_124" result="effect2_innerShadow_2_124"/>
<feColorMatrix in="SourceAlpha" type="matrix" values="0 0 0 0 0 0 0 0 0 0 0 0 0 0 0 0 0 0 127 0" result="hardAlpha"/>
<feOffset dy="1.67851"/>
<feGaussianBlur stdDeviation="2"/>
<feComposite in2="hardAlpha" operator="arithmetic" k2="-1" k3="1"/>
<feColorMatrix type="matrix" values="0 0 0 0 1 0 0 0 0 1 0 0 0 0 1 0 0 0 1 0"/>
<feBlend mode="overlay" in2="effect2_innerShadow_2_124" result="effect3_innerShadow_2_124"/>
<feColorMatrix in="SourceAlpha" type="matrix" values="0 0 0 0 0 0 0 0 0 0 0 0 0 0 0 0 0 0 127 0" result="hardAlpha"/>
<feOffset dx="-1.69628" dy="-3.39255"/>
<feGaussianBlur stdDeviation="2"/>
<feComposite in2="hardAlpha" operator="arithmetic" k2="-1" k3="1"/>
<feColorMatrix type="matrix" values="0 0 0 0 1 0 0 0 0 1 0 0 0 0 1 0 0 0 0.6 0"/>
<feBlend mode="normal" in2="effect3_innerShadow_2_124" result="effect4_innerShadow_2_124"/>
</filter>
<filter id="filter2_iiii_2_124" x="150.32" y="-3.39157" width="146.321" height="201.16" filterUnits="userSpaceOnUse" color-interpolation-filters="sRGB">
<feFlood flood-opacity="0" result="BackgroundImageFix"/>
<feBlend mode="normal" in="SourceGraphic" in2="BackgroundImageFix" result="shape"/>
<feColorMatrix in="SourceAlpha" type="matrix" values="0 0 0 0 0 0 0 0 0 0 0 0 0 0 0 0 0 0 127 0" result="hardAlpha"/>
<feOffset dy="13.5609"/>
<feGaussianBlur stdDeviation="27.1218"/>
<feComposite in2="hardAlpha" operator="arithmetic" k2="-1" k3="1"/>
<feColorMatrix type="matrix" values="0 0 0 0 0 0 0 0 0 0 0 0 0 0 0 0 0 0 0.03 0"/>
<feBlend mode="normal" in2="shape" result="effect1_innerShadow_2_124"/>
<feColorMatrix in="SourceAlpha" type="matrix" values="0 0 0 0 0 0 0 0 0 0 0 0 0 0 0 0 0 0 127 0" result="hardAlpha"/>
<feOffset dy="13.5609"/>
<feGaussianBlur stdDeviation="40.6827"/>
<feComposite in2="hardAlpha" operator="arithmetic" k2="-1" k3="1"/>
<feColorMatrix type="matrix" values="0 0 0 0 0.27451 0 0 0 0 0.564706 0 0 0 0 0.968627 0 0 0 0.05 0"/>
<feBlend mode="normal" in2="effect1_innerShadow_2_124" result="effect2_innerShadow_2_124"/>
<feColorMatrix in="SourceAlpha" type="matrix" values="0 0 0 0 0 0 0 0 0 0 0 0 0 0 0 0 0 0 127 0" result="hardAlpha"/>
<feOffset dy="1.67851"/>
<feGaussianBlur stdDeviation="2"/>
<feComposite in2="hardAlpha" operator="arithmetic" k2="-1" k3="1"/>
<feColorMatrix type="matrix" values="0 0 0 0 1 0 0 0 0 1 0 0 0 0 1 0 0 0 1 0"/>
<feBlend mode="overlay" in2="effect2_innerShadow_2_124" result="effect3_innerShadow_2_124"/>
<feColorMatrix in="SourceAlpha" type="matrix" values="0 0 0 0 0 0 0 0 0 0 0 0 0 0 0 0 0 0 127 0" result="hardAlpha"/>
<feOffset dx="-1.69628" dy="-3.39255"/>
<feGaussianBlur stdDeviation="2"/>
<feComposite in2="hardAlpha" operator="arithmetic" k2="-1" k3="1"/>
<feColorMatrix type="matrix" values="0 0 0 0 1 0 0 0 0 1 0 0 0 0 1 0 0 0 0.6 0"/>
<feBlend mode="normal" in2="effect3_innerShadow_2_124" result="effect4_innerShadow_2_124"/>
</filter>
<linearGradient id="paint0_linear_2_124" x1="334.195" y1="36.8393" x2="410.883" y2="197.979" gradientUnits="userSpaceOnUse">
<stop stop-color="#DBE0E7"/>
<stop offset="1" stop-color="#F8FBFF"/>
</linearGradient>
<radialGradient id="paint1_radial_2_124" cx="0" cy="0" r="1" gradientUnits="userSpaceOnUse" gradientTransform="translate(342.557 116.796) rotate(87.9181) scale(47.5439 72.5386)">
<stop stop-color="#83E9FF" stop-opacity="0.49"/>
<stop offset="0.620911" stop-color="#A4AEE6" stop-opacity="0.38"/>
<stop offset="1" stop-color="#609BEB" stop-opacity="0.47"/>
</radialGradient>
<radialGradient id="paint2_radial_2_124" cx="0" cy="0" r="1" gradientUnits="userSpaceOnUse" gradientTransform="translate(323.376 152.856) rotate(-27.8749) scale(35.8326 22.0249)">
<stop stop-color="#87DBFF" stop-opacity="0.6"/>
<stop offset="1" stop-color="#B1B9D5" stop-opacity="0"/>
</radialGradient>
<radialGradient id="paint3_radial_2_124" cx="0" cy="0" r="1" gradientUnits="userSpaceOnUse" gradientTransform="translate(348.423 125.973) rotate(67.8692) scale(35.5902 51.7893)">
<stop stop-color="#77FFDE"/>
<stop offset="1" stop-color="#B4D7EA" stop-opacity="0"/>
</radialGradient>
<linearGradient id="paint4_linear_2_124" x1="322.161" y1="59.5961" x2="401.024" y2="203.195" gradientUnits="userSpaceOnUse">
<stop stop-color="#D8D8D8" stop-opacity="0"/>
<stop offset="1" stop-color="white"/>
</linearGradient>
<linearGradient id="paint5_linear_2_124" x1="28.841" y1="60.262" x2="176.032" y2="161.666" gradientUnits="userSpaceOnUse">
<stop stop-color="#DBE0E7"/>
<stop offset="1" stop-color="#F8FBFF"/>
</linearGradient>
<radialGradient id="paint6_radial_2_124" cx="0" cy="0" r="1" gradientUnits="userSpaceOnUse" gradientTransform="translate(78.0519 124.994) rotate(58.729) scale(47.2138 69.3695)">
<stop stop-color="#83E9FF" stop-opacity="0.49"/>
<stop offset="0.620911" stop-color="#A4AEE6" stop-opacity="0.38"/>
<stop offset="1" stop-color="#609BEB" stop-opacity="0.47"/>
</radialGradient>
<radialGradient id="paint7_radial_2_124" cx="0" cy="0" r="1" gradientUnits="userSpaceOnUse" gradientTransform="translate(79.7869 165.578) rotate(-59.0661) scale(34.8772 21.4894)">
<stop stop-color="#87DBFF" stop-opacity="0.6"/>
<stop offset="1" stop-color="#B1B9D5" stop-opacity="0"/>
</radialGradient>
<radialGradient id="paint8_radial_2_124" cx="0" cy="0" r="1" gradientUnits="userSpaceOnUse" gradientTransform="translate(87.3379 130.1) rotate(39.2052) scale(34.9137 50.1359)">
<stop stop-color="#77FFDE"/>
<stop offset="1" stop-color="#B4D7EA" stop-opacity="0"/>
</radialGradient>
<linearGradient id="paint9_linear_2_124" x1="29.0992" y1="87.2322" x2="169.415" y2="172.306" gradientUnits="userSpaceOnUse">
<stop stop-color="#D8D8D8" stop-opacity="0"/>
<stop offset="1" stop-color="white"/>
</linearGradient>
<linearGradient id="paint10_linear_2_124" x1="180.345" y1="5.69808" x2="296.167" y2="141.649" gradientUnits="userSpaceOnUse">
<stop stop-color="#DBE0E7"/>
<stop offset="1" stop-color="#F8FBFF"/>
</linearGradient>
<radialGradient id="paint11_radial_2_124" cx="0" cy="0" r="1" gradientUnits="userSpaceOnUse" gradientTransform="translate(211.769 80.038) rotate(72.3399) scale(45.7233 72.0065)">
<stop stop-color="#83E9FF" stop-opacity="0.49"/>
<stop offset="0.620911" stop-color="#A4AEE6" stop-opacity="0.38"/>
<stop offset="1" stop-color="#609BEB" stop-opacity="0.47"/>
</radialGradient>
<radialGradient id="paint12_radial_2_124" cx="0" cy="0" r="1" gradientUnits="userSpaceOnUse" gradientTransform="translate(202.577 118.171) rotate(-41.7261) scale(35.0748 21.4804)">
<stop stop-color="#87DBFF" stop-opacity="0.6"/>
<stop offset="1" stop-color="#B1B9D5" stop-opacity="0"/>
</radialGradient>
<radialGradient id="paint13_radial_2_124" cx="0" cy="0" r="1" gradientUnits="userSpaceOnUse" gradientTransform="translate(219.773 87.084) rotate(51.8519) scale(34.6035 50.8506)">
<stop stop-color="#77FFDE"/>
<stop offset="1" stop-color="#B4D7EA" stop-opacity="0"/>
</radialGradient>
<linearGradient id="paint14_linear_2_124" x1="174.042" y1="31.2315" x2="287.444" y2="149.656" gradientUnits="userSpaceOnUse">
<stop stop-color="#D8D8D8" stop-opacity="0"/>
<stop offset="1" stop-color="white"/>
</linearGradient>
</defs>
</svg>
