<svg width="22" height="22" viewBox="0 0 22 22" fill="none" xmlns="http://www.w3.org/2000/svg">
<path d="M16.1791 5.82085C15.5007 5.1378 14.6938 4.59578 13.8049 4.22607C12.916 3.85635 11.9627 3.66623 10.9999 3.66669C6.94828 3.66669 3.67578 6.94835 3.67578 11C3.67578 15.0517 6.94828 18.3334 10.9999 18.3334C14.4191 18.3334 17.2699 15.9959 18.0858 12.8334H16.1791C15.8015 13.9054 15.1005 14.8339 14.1728 15.4906C13.2452 16.1474 12.1366 16.5001 10.9999 16.5C7.96578 16.5 5.49995 14.0342 5.49995 11C5.49995 7.96585 7.96578 5.50002 10.9999 5.50002C12.5216 5.50002 13.8783 6.13252 14.8683 7.13169L11.9166 10.0834H18.3333V3.66669L16.1791 5.82085Z" fill="black"/>
</svg>
