<svg width="22" height="22" viewBox="0 0 22 22" fill="none" xmlns="http://www.w3.org/2000/svg">
<path d="M16.1562 7.56249H11.6875V13.793C11.6875 13.9753 11.6151 14.1502 11.4861 14.2791C11.3572 14.408 11.1823 14.4805 11 14.4805C10.8177 14.4805 10.6428 14.408 10.5139 14.2791C10.3849 14.1502 10.3125 13.9753 10.3125 13.793V7.56249H5.84375C5.20578 7.56317 4.59414 7.8169 4.14303 8.26801C3.69192 8.71913 3.43818 9.33077 3.4375 9.96874V18.2187C3.43818 18.8567 3.69192 19.4683 4.14303 19.9195C4.59414 20.3706 5.20578 20.6243 5.84375 20.625H16.1562C16.7942 20.6243 17.4059 20.3706 17.857 19.9195C18.3081 19.4683 18.5618 18.8567 18.5625 18.2187V9.96874C18.5618 9.33077 18.3081 8.71913 17.857 8.26801C17.4059 7.8169 16.7942 7.56317 16.1562 7.56249ZM11.6875 3.72237L13.9515 5.98596C14.0815 6.10945 14.2546 6.17728 14.4339 6.17498C14.6131 6.17269 14.7844 6.10045 14.9112 5.97368C15.038 5.8469 15.1102 5.67562 15.1125 5.49634C15.1148 5.31707 15.047 5.14399 14.9235 5.01401L11.486 1.57651C11.3571 1.44768 11.1823 1.37531 11 1.37531C10.8177 1.37531 10.6429 1.44768 10.514 1.57651L7.07652 5.01401C6.95303 5.14399 6.88521 5.31707 6.8875 5.49634C6.8898 5.67562 6.96203 5.8469 7.08881 5.97368C7.21559 6.10045 7.38687 6.17269 7.56614 6.17498C7.74542 6.17728 7.9185 6.10945 8.04848 5.98596L10.3125 3.72237V7.56249H11.6875V3.72237Z" fill="white"/>
</svg>
