<svg width="24" height="24" viewBox="0 0 24 24" fill="none" xmlns="http://www.w3.org/2000/svg">
<path d="M17.625 8.25002H12.75V15.0469C12.75 15.2458 12.671 15.4366 12.5303 15.5772C12.3897 15.7179 12.1989 15.7969 12 15.7969C11.8011 15.7969 11.6103 15.7179 11.4697 15.5772C11.329 15.4366 11.25 15.2458 11.25 15.0469V8.25002H6.375C5.67904 8.25076 5.01179 8.52756 4.51967 9.01968C4.02755 9.51181 3.75074 10.1791 3.75 10.875V19.875C3.75074 20.571 4.02755 21.2382 4.51967 21.7304C5.01179 22.2225 5.67904 22.4993 6.375 22.5H17.625C18.321 22.4993 18.9882 22.2225 19.4803 21.7304C19.9725 21.2382 20.2493 20.571 20.25 19.875V10.875C20.2493 10.1791 19.9725 9.51181 19.4803 9.01968C18.9882 8.52756 18.321 8.25076 17.625 8.25002ZM12.75 4.0608L15.2198 6.53017C15.3616 6.66489 15.5505 6.73888 15.746 6.73638C15.9416 6.73388 16.1285 6.65507 16.2668 6.51677C16.4051 6.37847 16.4839 6.19161 16.4864 5.99604C16.4889 5.80047 16.4149 5.61166 16.2802 5.46986L12.5302 1.71986C12.3895 1.57932 12.1988 1.50037 12 1.50037C11.8012 1.50037 11.6105 1.57932 11.4698 1.71986L7.71984 5.46986C7.58513 5.61166 7.51114 5.80047 7.51364 5.99604C7.51614 6.19161 7.59495 6.37847 7.73325 6.51677C7.87155 6.65507 8.0584 6.73388 8.25398 6.73638C8.44955 6.73888 8.63836 6.66489 8.78016 6.53017L11.25 4.0608V8.25002H12.75V4.0608Z" fill="#888888"/>
</svg>
