<svg width="19" height="20" viewBox="0 0 19 20" fill="none" xmlns="http://www.w3.org/2000/svg">
<path fill-rule="evenodd" clip-rule="evenodd" d="M18.4631 1.617C18.4131 1.49665 18.3401 1.38725 18.2481 1.295L18.2441 1.291C18.0569 1.1044 17.8033 0.999728 17.5391 1H11.5391C11.2738 1 11.0195 1.10536 10.832 1.29289C10.6444 1.48043 10.5391 1.73478 10.5391 2C10.5391 2.26522 10.6444 2.51957 10.832 2.70711C11.0195 2.89464 11.2738 3 11.5391 3H15.1251L7.83206 10.293C7.73655 10.3852 7.66037 10.4956 7.60796 10.6176C7.55555 10.7396 7.52797 10.8708 7.52681 11.0036C7.52566 11.1364 7.55096 11.2681 7.60124 11.391C7.65152 11.5139 7.72578 11.6255 7.81967 11.7194C7.91356 11.8133 8.02521 11.8875 8.14811 11.9378C8.271 11.9881 8.40268 12.0134 8.53546 12.0123C8.66824 12.0111 8.79946 11.9835 8.92147 11.9311C9.04347 11.8787 9.15382 11.8025 9.24606 11.707L16.5391 4.414V8C16.5391 8.26522 16.6444 8.51957 16.832 8.70711C17.0195 8.89464 17.2738 9 17.5391 9C17.8043 9 18.0586 8.89464 18.2462 8.70711C18.4337 8.51957 18.5391 8.26522 18.5391 8V1.997C18.5388 1.86659 18.513 1.73749 18.4631 1.617ZM0.539062 6C0.539062 4.67392 1.06585 3.40215 2.00353 2.46447C2.94121 1.52678 4.21298 1 5.53906 1H6.53906C6.80428 1 7.05863 1.10536 7.24617 1.29289C7.43371 1.48043 7.53906 1.73478 7.53906 2C7.53906 2.26522 7.43371 2.51957 7.24617 2.70711C7.05863 2.89464 6.80428 3 6.53906 3H5.53906C4.74341 3 3.98035 3.31607 3.41774 3.87868C2.85513 4.44129 2.53906 5.20435 2.53906 6V14C2.53906 14.7957 2.85513 15.5587 3.41774 16.1213C3.98035 16.6839 4.74341 17 5.53906 17H13.5391C14.3347 17 15.0978 16.6839 15.6604 16.1213C16.223 15.5587 16.5391 14.7957 16.5391 14V13C16.5391 12.7348 16.6444 12.4804 16.832 12.2929C17.0195 12.1054 17.2738 12 17.5391 12C17.8043 12 18.0586 12.1054 18.2462 12.2929C18.4337 12.4804 18.5391 12.7348 18.5391 13V14C18.5391 15.3261 18.0123 16.5979 17.0746 17.5355C16.1369 18.4732 14.8651 19 13.5391 19H5.53906C4.21298 19 2.94121 18.4732 2.00353 17.5355C1.06585 16.5979 0.539062 15.3261 0.539062 14V6Z" fill="#1C1C1C" stroke="white" stroke-width="0.6"/>
</svg>
