<svg width="32" height="32" viewBox="0 0 32 32" fill="none" xmlns="http://www.w3.org/2000/svg">
<path d="M26.6667 2.66669H12.4445V7.11113H14.2223V4.44446H26.6667C27.2001 4.44446 27.5556 4.80002 27.5556 5.33335V15.1111C27.5556 15.6445 27.2001 16 26.6667 16H15.1112V22.2222H10.4001L7.11117 24.8V22.2222H4.4445C3.91117 22.2222 3.55561 21.8667 3.55561 21.3334V11.5556C3.55561 11.0222 3.91117 10.6667 4.4445 10.6667H16.0001V8.88891H4.4445C2.93339 8.88891 1.77783 10.0445 1.77783 11.5556V21.3334C1.77783 22.8445 2.93339 24 4.4445 24H5.33339V28.5334L10.9334 24H16.8889V17.7778H26.6667C28.1778 17.7778 29.3334 16.6222 29.3334 15.1111V5.33335C29.3334 3.82224 28.1778 2.66669 26.6667 2.66669Z" fill="#6D6D6D"/>
<path d="M5.51111 20.3556H7.64444L8.17778 18.9333H10.9333L11.4667 20.3556H13.6L10.5778 12.4445H8.44444L5.51111 20.3556ZM9.51111 14.6667L10.4 17.4222H8.62222L9.51111 14.6667Z" fill="#6D6D6D"/>
<path d="M17.7778 15.1111C18.7556 15.1111 20.0889 14.8444 21.3334 14.2222C22.5778 14.8444 24.0001 15.1111 24.8889 15.1111V13.3333C24.8889 13.3333 24.0001 13.3333 23.0223 12.9778C24.0889 11.9111 24.8889 10.3111 24.8889 7.99998V7.11109H22.2223V5.33331H20.4445V7.11109H17.7778V8.88887H23.0223C22.8445 10.4889 22.1334 11.4666 21.3334 12.0889C20.8001 11.6444 20.2667 11.0222 19.9112 10.2222H18.0445C18.4001 11.3778 18.9334 12.2666 19.6445 12.9778C18.7556 13.3333 17.9556 13.3333 17.7778 13.3333V15.1111Z" fill="#6D6D6D"/>
</svg>
