<svg width="413" height="478" viewBox="0 0 413 478" fill="none" xmlns="http://www.w3.org/2000/svg">
<path d="M165.903 202.939C156.944 202.939 149.627 210.257 149.627 219.215V322.033C149.627 330.991 156.944 338.309 165.903 338.309C174.861 338.309 182.179 330.991 182.179 322.033V219.215C182.179 210.257 175.012 202.939 165.903 202.939Z" fill="black"/>
<path d="M246.543 202.939C237.584 202.939 230.267 210.257 230.267 219.215V322.033C230.267 330.991 237.584 338.309 246.543 338.309C255.501 338.309 262.819 330.991 262.819 322.033L262.824 219.215C262.824 210.257 255.506 202.939 246.543 202.939H246.543Z" fill="black"/>
<path d="M16.196 96.6194H40.0133V429.033C40.0133 455.986 61.9667 477.866 88.8467 477.866H323.527C350.48 477.866 372.36 455.913 372.36 429.033V96.6194H396.177C405.136 96.6194 412.453 89.3016 412.453 80.3434C412.453 71.3851 405.136 64.0674 396.177 64.0674L306.276 63.5413V16.276C306.276 7.31759 298.958 0 290 0H122.453C113.495 0 106.177 7.31772 106.177 16.276V63.5413L16.276 63.9892C7.3176 63.9892 0 71.307 0 80.2653C0 89.2235 7.24481 96.6199 16.2027 96.6199L16.196 96.6194ZM339.796 429.033C339.796 437.991 332.478 445.309 323.52 445.309L88.92 445.314C79.9616 445.314 72.644 437.996 72.644 429.038V96.6246H339.871V429.038L339.796 429.033ZM138.716 32.486H273.783V63.47H138.716V32.486Z" fill="black"/>
</svg>
