<svg width="17" height="19" viewBox="0 0 17 19" fill="none" xmlns="http://www.w3.org/2000/svg">
<path d="M15.8964 3.61413H1.10776C0.929475 3.61413 0.758496 3.68495 0.632432 3.81102C0.506369 3.93708 0.435547 4.10806 0.435547 4.28634C0.435547 4.46462 0.506369 4.6356 0.632432 4.76166C0.758496 4.88773 0.929475 4.95855 1.10776 4.95855H1.77997V17.0583C1.77997 17.4149 1.92161 17.7568 2.17374 18.009C2.42586 18.2611 2.76782 18.4027 3.12438 18.4027H13.8797C14.2363 18.4027 14.5782 18.2611 14.8304 18.009C15.0825 17.7568 15.2241 17.4149 15.2241 17.0583V4.95855H15.8964C16.0746 4.95855 16.2456 4.88773 16.3717 4.76166C16.4977 4.6356 16.5686 4.46462 16.5686 4.28634C16.5686 4.10806 16.4977 3.93708 16.3717 3.81102C16.2456 3.68495 16.0746 3.61413 15.8964 3.61413ZM13.8797 17.0583H3.12438V4.95855H13.8797V17.0583ZM4.4688 1.5975C4.4688 1.41922 4.53962 1.24824 4.66569 1.12218C4.79175 0.996115 4.96273 0.925293 5.14101 0.925293H11.8631C12.0414 0.925293 12.2124 0.996115 12.3384 1.12218C12.4645 1.24824 12.5353 1.41922 12.5353 1.5975C12.5353 1.77578 12.4645 1.94676 12.3384 2.07283C12.2124 2.19889 12.0414 2.26971 11.8631 2.26971H5.14101C4.96273 2.26971 4.79175 2.19889 4.66569 2.07283C4.53962 1.94676 4.4688 1.77578 4.4688 1.5975Z" fill="#3C3C3C"/>
</svg>
